<svg xmlns="http://www.w3.org/2000/svg" xmlns:xlink="http://www.w3.org/1999/xlink" viewBox="0 0 151 64"><g transform="translate(0.004 0.574)" id="ss9564837040_1"><g transform="translate(113.117 0)" id="ss9564837040_2"><path d="M 30.185 16.368 C 27.698 16.368 25.475 15.095 24.522 13.124 C 24.228 12.528 24.199 11.557 24.448 10.917 C 24.456 10.895 24.463 10.873 24.47 10.851 C 24.243 11.189 23.949 11.549 23.561 11.77 C 22.57 12.337 21.646 12.616 20.751 12.616 C 20.333 12.616 19.922 12.557 19.518 12.432 C 18.125 12.005 16.841 11.505 15.704 10.946 C 15.205 10.703 14.713 10.439 14.222 10.181 C 12.857 9.453 11.566 8.761 10.091 8.445 C 9.732 8.364 9.46 8.335 9.211 8.335 C 8.852 8.335 8.529 8.416 8.213 8.592 C 7.575 8.945 6.871 9.203 6.174 9.343 C 5.8 9.416 5.418 9.453 5.051 9.453 C 3.569 9.453 2.161 8.864 0.73 7.651 C 0.569 7.511 0.503 7.297 0.554 7.091 L 0.62 6.841 C 0.686 6.591 0.921 6.393 1.17 6.393 C 1.192 6.393 1.222 6.393 1.244 6.393 L 1.486 6.429 C 1.647 6.459 1.809 6.481 1.97 6.503 C 2.22 6.532 2.476 6.577 2.726 6.621 C 3.188 6.702 3.621 6.775 4.039 6.775 C 4.112 6.775 4.186 6.775 4.259 6.768 C 5.55 6.672 6.739 6.201 7.78 5.363 C 8.719 4.612 9.71 4.23 10.744 4.23 C 11.507 4.23 12.285 4.443 13.063 4.855 C 13.862 5.282 14.493 5.554 15.095 5.723 C 15.762 5.914 16.261 6.003 16.657 6.003 C 17.332 6.003 17.736 5.745 18.257 4.988 C 19.834 2.692 22.225 1.295 25.571 0.721 C 26.253 0.603 26.928 0.544 27.581 0.544 C 30.552 0.544 33.193 1.751 35.438 4.142 C 37.03 5.834 37.639 8.033 37.162 10.336 C 36.649 12.785 34.969 14.897 32.775 15.838 C 31.968 16.184 31.095 16.36 30.178 16.36 Z M 29.305 10.814 L 29.327 10.865 C 29.554 11.16 29.885 11.226 30.119 11.226 C 30.163 11.226 30.207 11.226 30.244 11.226 L 30.2 11.226 C 29.855 11.218 29.54 11.079 29.305 10.828 Z" fill="rgb(74,144,206)"></path><path d="M 27.581 1.103 C 30.457 1.103 32.944 2.295 35.042 4.524 C 38.439 8.136 36.421 13.683 32.562 15.338 C 31.807 15.662 30.992 15.816 30.185 15.816 C 28.028 15.816 25.908 14.727 25.013 12.881 C 24.786 12.41 24.771 11.601 24.962 11.115 C 25.578 9.541 26.855 8.666 28.513 8.379 C 28.74 8.342 28.967 8.32 29.188 8.32 C 29.774 8.32 30.339 8.482 30.794 8.975 C 31.242 9.46 31.44 10.085 30.897 10.512 C 30.75 10.63 30.537 10.652 30.303 10.652 C 30.273 10.652 30.251 10.652 30.222 10.652 C 29.811 10.645 29.496 10.291 29.51 9.887 L 29.532 9.144 C 28.931 9.49 28.601 10.196 28.769 10.873 C 28.799 10.998 28.843 11.108 28.901 11.182 C 29.21 11.579 29.664 11.755 30.134 11.755 C 30.86 11.755 31.616 11.321 31.931 10.586 C 32.511 9.24 31.264 7.57 29.569 7.445 C 29.393 7.43 29.224 7.423 29.048 7.423 C 26.913 7.423 25.307 8.43 24.162 10.314 C 23.942 10.674 23.656 11.071 23.304 11.27 C 22.504 11.726 21.653 12.042 20.766 12.042 C 20.413 12.042 20.054 11.991 19.694 11.88 C 18.418 11.491 17.156 11.012 15.96 10.431 C 14.075 9.512 12.322 8.342 10.223 7.886 C 9.879 7.812 9.548 7.761 9.233 7.761 C 8.807 7.761 8.397 7.849 7.971 8.092 C 7.392 8.416 6.746 8.658 6.093 8.783 C 5.741 8.85 5.403 8.886 5.073 8.886 C 3.569 8.886 2.278 8.21 1.104 7.217 C 1.126 7.121 1.156 7.025 1.178 6.93 C 1.427 6.966 1.669 7.011 1.919 7.04 C 2.63 7.128 3.349 7.32 4.054 7.32 C 4.142 7.32 4.222 7.32 4.31 7.312 C 5.719 7.209 7.003 6.694 8.14 5.789 C 8.969 5.127 9.842 4.774 10.759 4.774 C 11.427 4.774 12.109 4.958 12.82 5.341 C 13.51 5.709 14.214 6.04 14.963 6.253 C 15.66 6.451 16.21 6.554 16.672 6.554 C 17.589 6.554 18.139 6.15 18.726 5.304 C 20.406 2.854 22.893 1.751 25.681 1.265 C 26.334 1.155 26.979 1.096 27.596 1.096 M 27.581 0 C 26.899 0 26.187 0.059 25.475 0.184 C 21.976 0.787 19.467 2.258 17.802 4.686 C 17.303 5.407 17.039 5.458 16.657 5.458 C 16.32 5.458 15.858 5.377 15.249 5.201 C 14.676 5.039 14.082 4.782 13.319 4.377 C 12.461 3.914 11.595 3.686 10.744 3.686 C 9.585 3.686 8.477 4.112 7.436 4.943 C 6.482 5.709 5.396 6.143 4.222 6.231 C 4.164 6.231 4.105 6.231 4.046 6.231 C 3.679 6.231 3.269 6.157 2.828 6.084 C 2.572 6.04 2.308 5.995 2.051 5.959 C 1.889 5.937 1.735 5.914 1.581 5.885 L 1.339 5.848 C 1.281 5.841 1.229 5.834 1.17 5.834 C 0.679 5.834 0.231 6.172 0.107 6.665 L 0.033 6.952 C -0.069 7.364 0.07 7.798 0.385 8.07 C 1.919 9.372 3.452 10.005 5.066 10.005 C 5.469 10.005 5.88 9.96 6.291 9.887 C 7.039 9.74 7.802 9.46 8.492 9.078 C 8.734 8.945 8.947 8.886 9.226 8.886 C 9.431 8.886 9.666 8.916 9.989 8.989 C 11.39 9.291 12.644 9.96 13.98 10.674 C 14.464 10.931 14.97 11.204 15.476 11.446 C 16.635 12.013 17.948 12.52 19.364 12.962 C 19.812 13.102 20.281 13.168 20.758 13.168 C 21.727 13.168 22.71 12.881 23.751 12.3 C 23.788 12.69 23.883 13.065 24.03 13.366 C 25.079 15.522 27.5 16.92 30.193 16.92 C 31.183 16.92 32.129 16.728 33.002 16.353 C 35.357 15.338 37.162 13.08 37.712 10.453 C 38.218 8.004 37.544 5.569 35.849 3.766 C 33.501 1.265 30.721 0 27.588 0 Z" fill="rgb(252,250,245)"></path></g><g transform="translate(0 16.124)" id="ss9564837040_5"><path d="M 33.163 27.734 C 33.163 27.734 47.527 27.02 44.27 18.561 C 42.311 13.455 35.995 12.175 30.119 13.477 C 30.119 13.477 26.01 7.489 18.557 8.357 C 10.384 9.306 9.328 15.074 9.328 15.074 C 9.328 15.074 -1.933 17.943 1.192 26.064 C 3.495 32.052 10.509 33.133 15.343 32.17 C 15.343 32.17 16.048 35.451 21.726 36.238 C 27.404 37.025 33.867 34.082 35.54 35.973 C 37.205 37.864 33.816 38.32 35.239 41.284 C 36.941 44.823 41.424 44.779 45.767 43.749 C 48.716 43.05 55.062 41.785 57.263 40.313 C 57.263 40.313 61.723 40.975 56.214 40.424 C 50.543 39.857 46.992 41.255 46.273 39.379 C 45.708 37.915 49.626 37.385 48.672 34.634 C 47.894 32.39 45.004 32.383 45.004 32.383 C 45.004 32.383 43.272 26.417 37.293 27.138" fill="rgb(74,144,206)"></path><path d="M 33.163 27.727 C 35.892 27.116 38.607 26.483 40.984 25.255 C 42.15 24.637 43.221 23.813 43.771 22.71 C 45.4 18.973 41.849 14.919 38.24 14.103 C 35.555 13.345 32.62 13.499 29.876 14.147 C 28.651 12.433 26.927 10.969 24.998 10.035 C 19.877 7.504 11.705 9.225 9.973 15.191 L 9.878 15.589 L 9.496 15.699 C 6.034 16.766 1.911 18.818 1.353 22.717 C 1.06 26.557 4.009 30 7.582 31.081 C 10.208 31.956 13.128 31.971 15.85 31.368 C 16.055 32.479 16.752 33.457 17.706 34.09 C 20.288 35.789 23.523 35.848 26.568 35.51 C 29.224 35.318 31.997 34.303 34.792 34.781 C 35.878 35.024 36.861 36.098 36.685 37.282 C 36.53 38.158 35.775 38.805 35.628 39.497 C 35.327 41.167 37.117 42.962 38.775 43.351 C 42.766 44.345 47.117 42.601 51.071 41.799 C 53.03 41.284 55.209 40.769 56.925 39.762 L 57.153 39.622 C 57.769 39.725 58.334 39.798 58.979 39.938 C 59.141 39.975 59.317 40.026 59.456 40.173 C 59.434 40.173 59.64 40.269 59.625 40.733 C 59.5 41.115 59.471 41.019 59.361 41.145 C 59.023 41.365 58.671 41.247 58.334 41.247 C 57.028 41.145 55.707 40.961 54.438 40.916 C 52.303 40.791 50.308 41.064 48.129 40.975 C 47.029 41.005 45.327 40.166 45.701 38.71 C 45.95 37.915 46.794 37.444 47.256 37.032 C 48.43 36.208 48.613 34.928 47.527 33.869 C 46.809 33.185 45.62 32.935 44.608 32.935 C 44.358 32.067 43.962 31.206 43.427 30.441 C 42.121 28.425 39.751 27.337 37.381 27.69 L 37.249 26.594 C 41.013 25.976 44.49 28.683 45.576 32.229 L 45.033 31.817 C 47.461 31.736 50.308 33.95 49.193 36.569 C 48.723 37.621 47.572 38.187 46.941 38.901 C 46.838 39.048 46.845 39.077 46.86 39.129 C 47.051 39.651 47.579 39.71 48.224 39.769 C 50.242 39.835 52.428 39.563 54.497 39.673 C 55.964 39.717 57.373 39.923 58.811 39.997 C 58.855 39.997 58.957 39.997 58.899 39.997 L 58.847 39.997 C 58.774 40.034 58.803 39.997 58.635 40.107 C 58.525 40.232 58.51 40.129 58.378 40.512 C 58.356 40.975 58.561 41.071 58.539 41.064 C 58.605 41.137 58.686 41.181 58.767 41.218 L 58.708 41.203 C 58.253 41.108 57.71 41.027 57.204 40.953 L 57.659 40.85 C 53.749 42.998 49.369 43.506 45.114 44.587 C 41.974 45.22 37.741 45.58 35.393 42.741 C 34.051 41.13 33.809 39.202 35.122 37.547 C 35.32 37.179 35.445 37.069 35.269 36.723 C 34.836 35.929 33.911 36.01 33.06 36.017 C 28.857 36.37 24.389 37.768 20.083 36.598 C 17.845 36.039 15.402 34.7 14.69 32.31 L 15.497 32.839 C 12.739 33.369 9.856 33.281 7.149 32.383 C 3.019 31.118 -0.371 27.028 0.033 22.562 C 0.37 19.546 2.791 17.347 5.293 16.015 C 6.54 15.353 7.802 14.831 9.188 14.441 L 8.711 14.949 C 10.641 8.048 19.708 6.055 25.533 8.924 C 27.529 9.917 29.253 11.307 30.617 13.132 L 30.001 12.889 C 34.146 12.006 39.032 12.146 42.465 15.015 C 44.167 16.493 45.29 18.664 45.319 20.944 C 45.048 26.572 37.653 28.028 33.17 27.727 Z" fill="rgb(252,250,245)"></path><path d="M 33.229 18.502 C 36.56 20.539 45.554 17.575 44.351 13.911 C 43.273 10.623 38.056 8.821 32.73 9.733 C 27.852 10.564 25.423 14.088 25.629 16.802 C 25.629 16.802 21.821 18.193 22.247 21.797 C 22.775 26.27 28.453 28.918 34.689 28.249 C 41.974 27.469 44.41 23.835 44.41 23.835 C 44.41 23.835 60.997 23.835 57.732 13.897 C 55.759 7.901 48.562 6.062 41.717 7.224 C 41.717 7.224 37.323 0.089 28.688 0.663 C 19.217 1.288 17.676 7.879 17.676 7.879 C 17.676 7.879 4.537 10.542 7.677 20.076 C 9.988 27.108 18.007 28.756 23.641 27.918 C 23.641 27.918 24.272 31.743 30.772 32.964 C 37.272 34.193 44.887 31.177 46.706 33.45 C 48.518 35.723 44.586 36.061 46.06 39.555 C 47.814 43.726 52.993 43.932 58.055 42.998 C 61.496 42.358 73.395 39.335 77.98 44.102 C 77.98 44.102 76.601 40.725 70.277 39.769 C 63.777 38.79 59.603 40.203 58.877 38.003 C 58.312 36.282 62.853 35.899 61.907 32.677 C 61.136 30.044 57.806 29.874 57.806 29.874 C 57.806 29.874 56.148 22.901 49.215 23.394" fill="rgb(74,144,206)"></path><path d="M 33.236 18.494 C 35.65 20.01 45.275 17.42 43.72 13.786 C 42.429 11.087 38.893 10.196 36.076 10.071 C 31.894 9.755 26.172 11.896 26.201 16.766 L 26.23 17.178 L 25.834 17.339 C 23.413 18.281 22.019 20.738 23.237 23.217 C 24.323 25.571 26.913 26.858 29.37 27.41 C 34.242 28.381 40.514 27.388 43.933 23.511 L 44.123 23.254 L 44.417 23.254 C 49.538 23.092 59.339 21.658 57.277 14.448 C 55.377 7.872 47.278 6.768 41.431 7.901 C 38.856 3.892 34.168 1.067 29.326 1.266 C 24.814 1.325 19.708 3.451 18.278 8.026 L 18.168 8.409 L 17.794 8.497 C 14.918 9.189 11.969 10.439 9.885 12.492 C 6.452 15.692 7.765 21.179 10.934 24.056 C 14.265 27.109 19.166 27.874 23.538 27.278 L 24.14 27.189 L 24.279 27.815 C 26.186 32.854 33.471 32.883 38.042 32.412 C 40.807 32.317 47.99 30.316 47.814 34.972 C 47.623 35.848 47.065 36.297 46.706 36.959 C 45.554 39.166 47.96 41.689 50.044 42.285 C 53.939 43.484 58.062 42.233 61.98 41.556 C 66.103 40.88 70.461 40.321 74.591 41.468 C 75.985 41.865 77.357 42.572 78.428 43.66 L 77.393 44.337 C 76.828 43.27 75.794 42.424 74.73 41.836 C 71.143 39.923 66.969 40.019 62.941 39.953 C 61.488 39.872 59.61 40.085 58.591 38.739 C 57.886 37.775 58.363 36.76 59.163 36.186 C 60.139 35.407 61.4 34.833 61.459 33.56 C 61.466 31.669 59.544 30.581 57.784 30.448 L 57.365 30.412 C 56.911 28.543 55.876 26.667 54.358 25.439 C 52.934 24.269 51.086 23.813 49.259 23.945 L 49.178 22.842 C 50.205 22.768 51.254 22.849 52.267 23.129 C 55.355 23.975 57.519 26.733 58.356 29.742 L 57.828 29.301 C 60.153 29.441 62.633 31.007 62.611 33.582 C 62.618 35.281 61.004 36.275 59.896 37.098 C 59.596 37.363 59.383 37.51 59.427 37.783 C 59.603 38.378 60.183 38.533 60.96 38.651 C 66.345 39.018 72.683 38.15 77.122 42.02 C 78.413 42.998 79.44 45.83 80.188 47.235 L 77.518 44.536 C 73.586 40.968 67.064 42.13 62.207 42.858 C 56.991 43.785 49.765 46.044 46.002 40.894 C 45.129 39.607 44.63 37.702 45.547 36.297 C 45.943 35.62 46.456 35.068 46.508 34.715 C 46.383 32.839 43.661 33.281 42.282 33.317 C 38.122 33.67 33.926 34.465 29.722 33.413 C 26.898 32.714 23.802 31.118 22.995 28.028 L 23.736 28.565 C 17.493 29.507 9.761 27.344 7.303 20.922 C 4.229 13.426 11.03 8.688 17.552 7.254 L 17.067 7.725 C 18.681 2.472 24.272 0.081 29.304 0.008 C 33.134 -0.125 36.927 1.42 39.729 4.01 C 40.668 4.87 41.504 5.79 42.238 6.901 L 41.614 6.621 C 46.42 5.841 52.025 6.268 55.803 9.748 C 59.992 13.911 59.962 20.113 54.064 22.533 C 50.998 23.879 47.726 24.321 44.41 24.416 L 44.894 24.159 C 39.986 30.522 22.87 31.338 21.653 21.488 C 21.499 19.098 23.311 17.104 25.438 16.273 L 25.071 16.847 C 24.976 11.197 31.3 8.593 36.12 8.953 C 37.763 9.019 39.406 9.321 40.954 9.976 C 44.622 11.462 46.992 15.412 42.605 17.876 C 39.89 19.348 35.951 20.238 33.236 18.502 Z" fill="rgb(252,250,245)"></path></g></g></svg>