<svg xmlns="http://www.w3.org/2000/svg" xmlns:xlink="http://www.w3.org/1999/xlink" viewBox="0 0 151 64"><g transform="translate(0.452 0.555)" id="ss11692022342_1"><g id="ss11692022342_2"><path d="M 7.476 15.822 C 6.585 15.822 5.736 15.652 4.952 15.317 C 2.82 14.407 1.187 12.366 0.687 9.998 C 0.224 7.772 0.816 5.646 2.363 4.011 C 4.545 1.707 7.112 0.533 10 0.533 C 10.635 0.533 11.291 0.59 11.954 0.704 C 15.206 1.259 17.53 2.61 19.063 4.828 C 19.57 5.561 19.962 5.81 20.618 5.81 C 21.003 5.81 21.488 5.724 22.137 5.54 C 22.729 5.376 23.342 5.113 24.119 4.7 C 24.875 4.295 25.631 4.096 26.373 4.096 C 27.371 4.096 28.341 4.466 29.253 5.191 C 30.266 6.002 31.421 6.464 32.676 6.549 C 32.747 6.549 32.819 6.556 32.89 6.556 C 33.297 6.556 33.717 6.485 34.167 6.407 C 34.409 6.364 34.659 6.322 34.901 6.293 C 35.058 6.272 35.222 6.251 35.379 6.222 L 35.607 6.187 C 35.607 6.187 35.664 6.187 35.693 6.187 C 35.928 6.187 36.149 6.35 36.206 6.585 L 36.277 6.862 C 36.327 7.061 36.263 7.275 36.106 7.403 C 34.716 8.576 33.339 9.145 31.906 9.145 C 31.55 9.145 31.179 9.109 30.815 9.038 C 30.138 8.903 29.453 8.654 28.833 8.313 C 28.526 8.142 28.212 8.064 27.863 8.064 C 27.628 8.064 27.364 8.1 27.014 8.171 C 25.581 8.476 24.326 9.145 22.993 9.849 C 22.515 10.105 22.037 10.354 21.552 10.588 C 20.447 11.122 19.199 11.605 17.844 12.025 C 17.459 12.146 17.053 12.203 16.646 12.203 C 15.769 12.203 14.878 11.932 13.915 11.385 C 13.537 11.172 13.252 10.823 13.031 10.496 C 13.038 10.517 13.045 10.539 13.052 10.56 C 13.295 11.179 13.266 12.117 12.981 12.693 C 12.047 14.599 9.886 15.829 7.476 15.829 Z M 7.54 10.844 C 7.768 10.844 8.089 10.78 8.317 10.496 C 8.317 10.496 8.317 10.482 8.332 10.453 C 8.103 10.695 7.797 10.83 7.462 10.837 L 7.419 10.837 C 7.462 10.837 7.504 10.837 7.54 10.837 Z" fill="rgb(234,87,63)"></path><path d="M 10 1.067 C 10.606 1.067 11.227 1.124 11.861 1.23 C 14.571 1.692 16.981 2.766 18.621 5.134 C 19.185 5.952 19.727 6.343 20.618 6.343 C 21.067 6.343 21.602 6.244 22.279 6.052 C 23.007 5.845 23.699 5.525 24.362 5.17 C 25.053 4.8 25.717 4.622 26.365 4.622 C 27.257 4.622 28.105 4.956 28.911 5.604 C 30.009 6.485 31.257 6.983 32.633 7.076 C 32.719 7.076 32.797 7.083 32.883 7.083 C 33.568 7.083 34.266 6.898 34.958 6.812 C 35.2 6.784 35.436 6.741 35.678 6.706 C 35.7 6.798 35.728 6.891 35.75 6.983 C 34.609 7.943 33.354 8.597 31.892 8.597 C 31.571 8.597 31.243 8.569 30.901 8.498 C 30.273 8.377 29.638 8.142 29.075 7.829 C 28.654 7.602 28.262 7.509 27.849 7.509 C 27.542 7.509 27.221 7.559 26.886 7.63 C 24.839 8.071 23.135 9.202 21.31 10.091 C 20.147 10.652 18.921 11.115 17.68 11.492 C 17.331 11.598 16.981 11.648 16.639 11.648 C 15.776 11.648 14.949 11.342 14.172 10.901 C 13.829 10.702 13.551 10.325 13.337 9.977 C 12.218 8.156 10.663 7.182 8.588 7.182 C 8.424 7.182 8.253 7.182 8.082 7.204 C 6.442 7.324 5.223 8.932 5.786 10.24 C 6.093 10.951 6.827 11.371 7.533 11.371 C 7.989 11.371 8.431 11.193 8.731 10.816 C 8.788 10.745 8.831 10.638 8.859 10.517 C 9.023 9.863 8.702 9.18 8.118 8.846 L 8.139 9.564 C 8.153 9.963 7.84 10.297 7.447 10.304 C 7.419 10.304 7.39 10.304 7.369 10.304 C 7.141 10.304 6.934 10.276 6.791 10.169 C 6.264 9.756 6.456 9.152 6.891 8.683 C 7.333 8.206 7.882 8.05 8.453 8.05 C 8.674 8.05 8.895 8.071 9.109 8.107 C 10.713 8.377 11.961 9.223 12.56 10.752 C 12.746 11.221 12.731 12.011 12.51 12.459 C 11.64 14.236 9.58 15.296 7.483 15.296 C 6.699 15.296 5.907 15.147 5.173 14.834 C 1.422 13.234 -0.532 7.872 2.762 4.38 C 4.795 2.226 7.219 1.074 10.014 1.074 M 10 0 C 6.955 0 4.26 1.223 1.971 3.641 C 0.324 5.383 -0.332 7.737 0.16 10.105 C 0.687 12.644 2.442 14.827 4.738 15.808 C 5.593 16.171 6.513 16.356 7.469 16.356 C 10.086 16.356 12.439 15.004 13.459 12.921 C 13.601 12.629 13.694 12.267 13.73 11.89 C 14.742 12.452 15.698 12.729 16.639 12.729 C 17.095 12.729 17.552 12.658 17.994 12.53 C 19.377 12.103 20.647 11.612 21.773 11.065 C 22.272 10.823 22.757 10.567 23.228 10.318 C 24.526 9.628 25.745 8.981 27.107 8.69 C 27.421 8.626 27.649 8.59 27.849 8.59 C 28.112 8.59 28.326 8.647 28.562 8.775 C 29.232 9.145 29.966 9.415 30.701 9.557 C 31.1 9.636 31.5 9.671 31.892 9.671 C 33.461 9.671 34.951 9.06 36.441 7.801 C 36.755 7.538 36.89 7.118 36.784 6.72 L 36.755 6.606 L 36.712 6.443 C 36.591 5.966 36.156 5.639 35.678 5.639 C 35.621 5.639 35.571 5.639 35.514 5.653 L 35.279 5.689 C 35.129 5.71 34.972 5.739 34.823 5.76 C 34.573 5.788 34.316 5.838 34.067 5.881 C 33.646 5.952 33.247 6.023 32.883 6.023 C 32.826 6.023 32.769 6.023 32.712 6.023 C 31.564 5.938 30.516 5.525 29.589 4.779 C 28.583 3.975 27.499 3.563 26.373 3.563 C 25.545 3.563 24.704 3.79 23.87 4.231 C 23.128 4.629 22.55 4.871 21.994 5.028 C 21.402 5.198 20.953 5.276 20.625 5.276 C 20.254 5.276 19.99 5.227 19.513 4.53 C 17.894 2.19 15.455 0.761 12.054 0.178 C 11.362 0.057 10.678 0 10.007 0 Z" fill="rgb(252,250,245)"></path></g><g transform="translate(82.345 13.966)" id="ss11692022342_5"><path d="M 53.136 1.18 L 48.436 8.953 C 48.009 9.216 47.574 9.508 47.132 9.799 C 45.299 11.065 44.151 12.302 42.653 13.945 C 39.33 17.579 36.357 16.32 33.055 17.195 C 33.055 17.195 32.235 17.109 31.208 17.664 C 31.208 17.664 29.975 13.589 24.998 14.82 C 24.998 14.82 24.612 14.613 23.978 14.414 C 24.128 13.454 24.755 11.876 27.144 11.364 C 31.08 10.382 31.415 12.124 34.838 8.668 C 34.838 8.668 37.02 6.016 39.773 4.316 C 42.133 2.859 49.064 1.209 52.658 0.028 C 53.129 -0.128 53.556 0.377 53.143 1.173 Z" fill="rgb(234,87,63)" stroke-width="1.5" stroke="rgb(252,250,245)" stroke-linecap="round" stroke-linejoin="round" stroke-dasharray=""></path><path d="M 32.791 17.813 C 32.791 17.813 32.834 17.785 32.856 17.771 C 32.856 17.771 31.487 13.234 25.946 14.606 C 25.946 14.606 25.518 14.379 24.812 14.158 C 22.602 13.483 17.681 12.949 15.128 20.21 C 15.207 20.217 12.79 22.798 14.102 26.823 C 15.492 31.09 26.395 30.969 29.112 27.804 C 34.41 25.308 35.637 22.037 32.791 17.813 Z" fill="rgb(234,87,63)" stroke-width="1.5" stroke="rgb(252,250,245)" stroke-linecap="round" stroke-linejoin="round" stroke-dasharray=""></path><path d="M 18.33 31.168 C 17.91 30.336 16.918 30.066 16.141 30.578 C 10.465 34.297 15.656 40.775 21.582 36.779 C 26.495 33.465 23.75 29.049 23.75 29.049 C 23.75 29.049 24.648 25.963 23.222 23.652 C 22.195 21.988 19.977 20.779 15.285 21.156 C 15.285 21.156 13.688 19.762 11.47 19.492 C 10.066 19.321 8.368 19.733 6.821 20.8 C 2.835 23.566 4.568 27.932 4.568 27.932 C 4.568 27.932 -0.616 30.869 0.845 36.736 C 2.307 42.603 8.604 43.15 9.716 42.382 C 9.716 42.382 12.019 48.981 18.737 48.249 C 25.461 47.524 27.465 42.852 27.465 42.852 C 27.465 42.852 32.599 41.259 33.305 35.2 C 34.011 29.141 42.668 31.659 45.991 29.355 C 50.49 25.906 48.044 23.346 51.859 19.385 C 55.674 15.431 61.743 11.876 67.233 1.842 C 67.233 1.842 65.579 1.351 59.782 3.406 C 54.947 5.12 49.035 6.215 42.96 10.233 C 41.135 11.435 39.979 12.636 38.475 14.215 C 35.138 17.721 32.257 16.42 28.991 17.216 C 28.991 17.216 28.192 17.116 27.172 17.636 C 25.782 18.347 23.985 20.096 23.236 23.637" fill="rgb(234,87,63)"></path><path d="M 18.323 31.175 C 17.467 30.322 16.59 30.706 15.891 31.417 C 15.121 32.064 14.48 32.875 14.294 33.799 C 13.866 35.769 15.706 37.461 17.631 37.49 C 21.81 37.504 25.703 33.138 23.172 29.134 C 23.742 27.065 23.664 24.327 21.839 22.919 C 19.992 21.532 17.375 21.568 15.121 21.739 L 14.929 21.582 C 10.458 17.692 3.077 21.838 5.117 27.726 L 5.274 28.181 L 4.867 28.437 C -0.902 31.915 0.418 40.675 7.142 41.941 C 7.834 42.069 8.554 42.133 9.231 41.963 C 9.31 41.941 9.324 41.913 9.388 41.899 L 10.116 41.763 C 10.75 43.506 11.877 45.184 13.389 46.3 C 17.646 49.415 24.862 46.962 27.03 42.368 C 29.454 41.579 31.472 39.502 32.271 37.07 C 32.642 35.982 32.606 35.022 32.991 33.835 C 34.945 28.971 41.434 30.784 45.171 29.106 C 46.647 28.252 47.83 26.816 48.337 25.18 C 48.7 24.064 48.936 22.734 49.556 21.518 C 50.141 20.302 51.053 19.25 51.973 18.368 C 55.674 14.912 59.575 11.833 62.598 7.779 C 64.11 5.81 65.451 3.712 66.656 1.536 L 67.041 2.475 C 67.041 2.475 66.927 2.46 66.855 2.453 C 63.518 2.489 60.395 3.996 57.229 4.899 C 53.856 5.923 50.519 6.912 47.402 8.419 C 45.841 9.159 44.336 10.027 42.917 10.979 C 40.685 12.387 39.209 14.727 36.97 16.192 C 34.645 17.763 31.472 17.187 29.034 17.778 C 27.636 17.664 26.352 18.695 25.511 19.755 C 24.612 20.885 24.071 22.3 23.75 23.751 L 22.701 23.531 C 23.037 21.966 23.621 20.402 24.648 19.086 C 25.711 17.749 27.229 16.569 29.055 16.668 C 30.631 16.107 34.41 16.64 36.364 15.218 C 38.51 13.746 39.972 11.442 42.233 10.005 C 46.625 6.94 51.809 5.198 56.858 3.698 C 60.181 2.723 63.411 1.152 66.941 1.152 C 67.091 1.166 67.169 1.159 67.412 1.216 L 68.203 1.408 C 66.87 3.904 65.365 6.322 63.625 8.562 C 60.594 12.629 56.523 15.872 52.865 19.271 C 50.875 21.006 50.184 23.04 49.535 25.564 C 48.921 27.513 47.502 29.241 45.712 30.222 C 43.894 31.061 41.848 31.075 39.958 31.317 C 37.762 31.587 34.974 31.936 34.153 34.24 C 33.882 34.987 33.854 36.096 33.569 36.956 C 32.77 39.907 30.552 42.361 27.643 43.42 L 28.021 43.079 C 25.725 47.502 20.092 49.692 15.342 48.562 C 12.426 47.723 10.251 45.326 9.146 42.56 L 10.051 42.851 C 9.381 43.228 8.903 43.2 8.383 43.221 C 1.245 43.221 -2.641 34.667 2.051 29.319 C 2.692 28.572 3.398 27.947 4.275 27.406 L 4.026 28.117 C 1.566 21.127 10.258 16.028 15.656 20.707 L 15.243 20.572 C 21.268 19.932 25.867 22.556 24.277 29.184 L 24.213 28.736 C 25.447 30.855 25.326 33.657 23.728 35.527 C 21.553 38.236 17.004 39.907 14.251 37.07 C 12.326 35.129 13.16 32.021 15.214 30.578 C 15.713 30.208 16.348 29.81 17.004 29.916 C 17.674 29.987 18.337 30.599 18.302 31.154 Z" fill="rgb(252,250,245)"></path><path d="M 27.279 38.322 C 29.005 41.785 26.424 46.876 22.48 47.267 C 22.43 47.267 22.395 47.203 22.438 47.168 C 25.097 44.999 28.363 42.162 27.18 38.364 C 27.151 38.307 27.244 38.258 27.272 38.315 Z" fill="rgb(252,250,245)"></path><path d="M 9.131 27.797 C 5.267 26.823 2.6 30.222 0.567 32.988 C 0.539 33.031 0.46 33.003 0.468 32.953 C 0.596 29.888 3.498 27.726 6.358 27.314 C 7.313 27.186 8.319 27.278 9.174 27.705 C 9.231 27.733 9.196 27.826 9.131 27.804 Z" fill="rgb(252,250,245)"></path><path d="M 24.37 30.898 C 24.37 30.898 28.028 31.218 31.03 27.698 C 34.039 24.178 36.885 24.882 39.045 22.713 C 41.577 20.181 49.955 13.412 51.788 12.729 C 51.61 13.042 47.859 16.007 44.329 18.759 C 42.119 20.551 42.226 22.222 38.532 24.356 C 36.072 25.771 34.603 25.792 33.041 26.88 C 31.201 28.459 32.449 30.151 26.994 32.22 C 26.994 32.22 26.081 32.562 24.862 33.7 C 23.643 34.837 22.837 37.269 19.635 37.788 C 23.186 36.274 25.154 33.572 24.363 30.905 Z" fill="rgb(252,250,245)"></path></g></g></svg>