<svg xmlns="http://www.w3.org/2000/svg" width="48" height="48" fill="none"><path fill="#FCFAF5" fill-opacity=".8" d="M2.229 24.019c0-3.712.018-7.42-.014-11.132-.004-.73.217-1.157.886-1.529C9.627 7.728 16.14 4.07 22.637.388c.895-.506 1.592-.529 2.525 0a1945.38 1945.38 0 0 0 19.157 10.75c.914.507 1.352 1.032 1.343 2.148-.065 7.24-.05 14.485-.014 21.73 0 .87-.29 1.336-1.061 1.766A1922.393 1922.393 0 0 0 25.53 47.487c-1.14.65-2.022.709-3.217.023-6.318-3.627-12.687-7.169-19.056-10.706-.761-.421-1.061-.887-1.047-1.757.055-3.676.023-7.348.023-11.024l-.005-.004Z"/><path fill="#463615" d="m24.392 17.135-7.05 7.05 7.079 7.084-1.414 1.414-8.494-8.498 8.465-8.464 1.414 1.414Z"/><path fill="#463615" d="M16.91 23.192v2.004l15.002.013v-2.004l-15.003-.013Z"/></svg>