<svg xmlns="http://www.w3.org/2000/svg" width="129" height="79" fill="none"><path fill="#31548C" d="m64.14 1.74 62.68 34.78-62.68 35.71L1.45 36.52 64.14 1.74Z"/><path fill="#463615" d="M1.45 41.48v-4.96l62.69 35.71 62.68-35.71v4.96L64.14 77.19 1.45 41.48Z"/><path stroke="#FCFAF5" stroke-linecap="round" stroke-linejoin="round" stroke-width=".34" d="m1.16 36.35 62.8 35.78m.35 0 62.8-35.78M64.14 72.23v4.79"/><path fill="#463615" d="m64.14 1.74 62.69 34.78v4.96L64.14 77.19 1.45 41.48v-4.96L64.14 1.74Zm0-1.37c-.23 0-.46.06-.66.17L.79 35.32c-.43.24-.7.7-.7 1.19v4.96c0 .49.26.94.69 1.19l62.69 35.71c.21.12.44.18.68.18.24 0 .47-.06.68-.18l62.69-35.71c.43-.24.69-.7.69-1.19v-4.96c0-.5-.27-.95-.7-1.19L64.82.54a1.41 1.41 0 0 0-.66-.17h-.02Z"/><path fill="#85B2D3" d="m89.84 52.72 3.83-2.18L38.8 19.72l-3.84 2.12 54.88 30.88Z"/><path fill="#F7E2B7" d="m38.8 19.72 54.87 30.82 25.34-14.44L64.15 5.65 38.8 19.72Z"/><path fill="#A1BC6C" d="m9.26 36.11 25.71-14.27s54.41 30.84 54.87 30.88c.46.04-25.71 14.65-25.71 14.65L9.26 36.11Z"/><path fill="#463615" stroke="#463615" stroke-miterlimit="10" stroke-width=".17" d="m64.14 67.5-7.08-4.03 6.6-3.75 7.08 4.02-6.6 3.76Zm-6.84-4.03 6.83 3.89 6.37-3.63-6.83-3.88-6.37 3.62Z"/><path fill="#463615" stroke="#463615" stroke-miterlimit="10" stroke-width=".17" d="m57.18 63.54-7.06-4.02 6.6-3.74 7.06 4.01-6.6 3.75Zm-6.81-4.01 6.8 3.88 6.37-3.62-6.8-3.86-6.37 3.6Z"/><path fill="#463615" stroke="#463615" stroke-miterlimit="10" stroke-width=".17" d="m50.25 59.59-7.03-4.01 6.6-3.72 7.03 3.99-6.6 3.74Zm-6.79-4 6.78 3.86 6.37-3.6L49.83 52l-6.37 3.59Z"/><path fill="#463615" stroke="#463615" stroke-miterlimit="10" stroke-width=".17" d="m43.34 55.66-7.01-3.99 6.6-3.71 7.01 3.98-6.6 3.72Zm-6.77-3.99 6.76 3.85 6.37-3.59-6.76-3.84-6.37 3.58Z"/><path fill="#463615" stroke="#463615" stroke-miterlimit="10" stroke-width=".17" d="m36.46 51.73-6.99-3.98 6.6-3.7 6.99 3.97-6.6 3.71Zm-6.75-3.97 6.74 3.84 6.37-3.58-6.74-3.83-6.37 3.57Z"/><path fill="#463615" stroke="#463615" stroke-miterlimit="10" stroke-width=".17" d="m29.59 47.82-6.96-3.97 6.6-3.69 6.96 3.96-6.6 3.7Zm-6.72-3.96 6.72 3.83 6.37-3.57-6.72-3.81-6.37 3.56v-.01Z"/><path fill="#463615" stroke="#463615" stroke-miterlimit="10" stroke-width=".17" d="m22.75 43.93-6.94-3.95 6.6-3.68 6.94 3.94-6.6 3.69Zm-6.7-3.95 6.69 3.81 6.37-3.56-6.69-3.8-6.37 3.55Z"/><path fill="#463615" stroke="#463615" stroke-miterlimit="10" stroke-width=".17" d="M15.94 40.04 9.02 36.1l6.6-3.66 6.92 3.93-6.6 3.68v-.01Zm-6.68-3.93 6.67 3.8 6.37-3.55-6.67-3.79-6.37 3.53v.01Zm61.36 27.7-7.08-4.02 6.58-3.74 7.08 4.01-6.58 3.75Zm-6.83-4.02 6.83 3.88 6.35-3.62-6.83-3.87-6.35 3.61Z"/><path fill="#463615" stroke="#463615" stroke-miterlimit="10" stroke-width=".17" d="m63.67 59.86-7.06-4.01 6.58-3.72 7.06 4-6.58 3.74v-.01Zm-6.82-4 6.8 3.86L70 56.11l-6.8-3.85-6.35 3.59v.01Z"/><path fill="#463615" stroke="#463615" stroke-miterlimit="10" stroke-width=".17" d="m56.74 55.92-7.03-3.99 6.58-3.71 7.03 3.98-6.58 3.72Zm-6.79-3.99 6.78 3.85 6.35-3.59-6.78-3.84-6.35 3.58Z"/><path fill="#463615" stroke="#463615" stroke-miterlimit="10" stroke-width=".17" d="m49.83 52-7.01-3.98 6.58-3.7 7.01 3.97L49.83 52Zm-6.77-3.98 6.76 3.84 6.35-3.58-6.76-3.83-6.35 3.57Z"/><path fill="#463615" stroke="#463615" stroke-miterlimit="10" stroke-width=".17" d="m42.94 48.09-6.99-3.97 6.58-3.69 6.99 3.96-6.58 3.7Zm-6.74-3.97 6.74 3.83 6.35-3.57-6.74-3.81-6.35 3.56v-.01Z"/><path fill="#463615" stroke="#463615" stroke-miterlimit="10" stroke-width=".17" d="m36.08 44.19-6.96-3.96 6.58-3.68 6.97 3.94-6.58 3.69-.01.01Zm-6.72-3.95 6.72 3.81 6.35-3.56-6.72-3.8-6.35 3.55Z"/><path fill="#463615" stroke="#463615" stroke-miterlimit="10" stroke-width=".17" d="m29.24 40.31-6.94-3.94 6.58-3.66 6.94 3.93-6.58 3.68v-.01Zm-6.7-3.94 6.69 3.8 6.35-3.55-6.69-3.79-6.35 3.54Z"/><path fill="#463615" stroke="#463615" stroke-miterlimit="10" stroke-width=".17" d="M22.42 36.43 15.5 32.5l6.58-3.65L29 32.77l-6.58 3.66Zm-6.68-3.92 6.67 3.79 6.35-3.53-6.67-3.78-6.35 3.52Zm61.35 27.61-7.08-4.01 6.56-3.73 7.08 4-6.56 3.74Zm-6.84-4 6.83 3.87 6.33-3.61-6.83-3.85-6.33 3.59Z"/><path fill="#463615" stroke="#463615" stroke-miterlimit="10" stroke-width=".17" d="m70.14 56.19-7.06-4 6.56-3.71 7.06 3.98-6.56 3.73Zm-6.82-3.99 6.8 3.85 6.33-3.59-6.8-3.84-6.33 3.58Z"/><path fill="#463615" stroke="#463615" stroke-miterlimit="10" stroke-width=".17" d="m63.2 52.26-7.03-3.98 6.56-3.7 7.03 3.97-6.56 3.71Zm-6.79-3.97 6.78 3.84 6.33-3.58-6.78-3.83-6.33 3.57Z"/><path fill="#463615" stroke="#463615" stroke-miterlimit="10" stroke-width=".17" d="m56.3 48.35-7.01-3.97 6.56-3.69 7.01 3.96-6.56 3.7Zm-6.77-3.96 6.76 3.83 6.33-3.57-6.76-3.82-6.33 3.56Z"/><path fill="#463615" stroke="#463615" stroke-miterlimit="10" stroke-width=".17" d="m49.41 44.45-6.99-3.96 6.56-3.68 6.99 3.94-6.56 3.69v.01Zm-6.75-3.95 6.74 3.81 6.33-3.56-6.74-3.8-6.33 3.55Z"/><path fill="#463615" stroke="#463615" stroke-miterlimit="10" stroke-width=".17" d="m42.55 40.57-6.97-3.94 6.56-3.66 6.97 3.93-6.56 3.68v-.01Zm-6.73-3.94 6.72 3.8 6.33-3.55-6.72-3.79-6.33 3.54Z"/><path fill="#463615" stroke="#463615" stroke-miterlimit="10" stroke-width=".17" d="m35.71 36.69-6.94-3.93 6.56-3.65 6.94 3.92-6.56 3.66ZM29 32.77l6.69 3.79 6.33-3.54-6.69-3.78L29 32.76v.01Z"/><path fill="#463615" stroke="#463615" stroke-miterlimit="10" stroke-width=".17" d="m28.89 32.83-6.92-3.92 6.56-3.64 6.92 3.91-6.56 3.65Zm-6.68-3.91 6.67 3.78 6.33-3.52-6.67-3.77-6.33 3.51Zm61.33 27.53-7.08-4L83 48.74l7.08 3.98-6.54 3.73Zm-6.84-3.99 6.83 3.85 6.31-3.6-6.83-3.84-6.31 3.58v.01Z"/><path fill="#463615" stroke="#463615" stroke-miterlimit="10" stroke-width=".17" d="m76.58 52.53-7.06-3.98 6.54-3.7 7.06 3.97-6.54 3.71Zm-6.81-3.98 6.8 3.84 6.31-3.58-6.8-3.83-6.31 3.57Z"/><path fill="#463615" stroke="#463615" stroke-miterlimit="10" stroke-width=".17" d="m69.65 48.61-7.03-3.97 6.54-3.69 7.03 3.96-6.54 3.7Zm-6.79-3.96 6.78 3.83 6.31-3.57-6.78-3.82-6.31 3.56Z"/><path fill="#463615" stroke="#463615" stroke-miterlimit="10" stroke-width=".17" d="m62.74 44.71-7.01-3.96 6.54-3.68 7.01 3.94-6.54 3.69v.01Zm-6.77-3.95 6.76 3.82 6.31-3.56-6.76-3.8-6.31 3.55v-.01Z"/><path fill="#463615" stroke="#463615" stroke-miterlimit="10" stroke-width=".17" d="m55.86 40.83-6.99-3.94 6.54-3.67 6.99 3.93-6.54 3.68Zm-6.75-3.94 6.74 3.8 6.31-3.55-6.74-3.79-6.31 3.54Z"/><path fill="#463615" stroke="#463615" stroke-miterlimit="10" stroke-width=".17" d="m48.99 36.95-6.97-3.93 6.54-3.65 6.97 3.92-6.54 3.67v-.01Zm-6.72-3.92 6.72 3.79 6.31-3.54-6.72-3.78-6.31 3.53Z"/><path fill="#463615" stroke="#463615" stroke-miterlimit="10" stroke-width=".17" d="m42.15 33.09-6.94-3.92 6.54-3.64 6.94 3.91-6.54 3.65Zm-6.7-3.91 6.69 3.78 6.31-3.52-6.69-3.77-6.31 3.51Z"/><path fill="#463615" stroke="#463615" stroke-miterlimit="10" stroke-width=".17" d="m35.33 29.24-6.92-3.91 6.54-3.63 6.92 3.89-6.54 3.64v.01Zm-6.68-3.9 6.67 3.77 6.31-3.51-6.67-3.75-6.31 3.5v-.01Zm14.6 30.25-.79-15.09h.17l.79 15.09h-.17Z"/><path fill="#463615" stroke="#463615" stroke-miterlimit="10" stroke-width=".17" d="M29.59 47.8v-.09l26.7.52.01.1-26.71-.53Zm35.02-34.85L57.69 9.1l6.45-3.58 6.92 3.84-6.45 3.59ZM57.92 9.1l6.67 3.71 6.22-3.46-6.67-3.7-6.22 3.45Z"/><path fill="#463615" stroke="#463615" stroke-miterlimit="10" stroke-width=".17" d="m71.42 16.74-6.94-3.86 6.45-3.59 6.94 3.85-6.45 3.6Zm-6.7-3.85 6.69 3.73 6.22-3.48-6.69-3.71-6.22 3.46Z"/><path fill="#463615" stroke="#463615" stroke-miterlimit="10" stroke-width=".17" d="m78.27 20.55-6.97-3.88 6.45-3.6 6.96 3.86-6.45 3.61.01.01Zm-6.73-3.87 6.72 3.74 6.22-3.49-6.72-3.73-6.22 3.48Z"/><path fill="#463615" stroke="#463615" stroke-miterlimit="10" stroke-width=".17" d="m85.13 24.37-6.99-3.89 6.45-3.61 6.99 3.88-6.45 3.63v-.01Zm-6.75-3.88 6.74 3.75 6.22-3.5L84.6 17l-6.22 3.49Z"/><path fill="#463615" stroke="#463615" stroke-miterlimit="10" stroke-width=".17" d="M92.01 28.2 85 24.3l6.45-3.63 7.01 3.89-6.45 3.64Zm-6.77-3.89L92 28.07l6.22-3.51-6.76-3.75-6.22 3.5Z"/><path fill="#463615" stroke="#463615" stroke-miterlimit="10" stroke-width=".17" d="m98.92 32.05-7.03-3.91 6.45-3.64 7.03 3.9-6.45 3.65Zm-6.79-3.91 6.78 3.77 6.22-3.52-6.78-3.76-6.22 3.51Z"/><path fill="#463615" stroke="#463615" stroke-miterlimit="10" stroke-width=".17" d="m105.85 35.91-7.06-3.93 6.45-3.65 7.06 3.92-6.45 3.66Zm-6.81-3.93 6.8 3.79 6.22-3.53-6.8-3.78-6.22 3.52Z"/><path fill="#463615" stroke="#463615" stroke-miterlimit="10" stroke-width=".17" d="m112.81 39.78-7.08-3.94 6.45-3.66 7.08 3.93-6.45 3.67Zm-6.84-3.94 6.83 3.8 6.22-3.54-6.83-3.79-6.22 3.53ZM58.25 16.49l-6.92-3.86 6.47-3.59 6.92 3.85-6.47 3.6Zm-6.68-3.86 6.67 3.72 6.24-3.48-6.67-3.71-6.24 3.46v.01Z"/><path fill="#463615" stroke="#463615" stroke-miterlimit="10" stroke-width=".17" d="m65.07 20.29-6.94-3.88 6.47-3.6 6.94 3.86-6.47 3.61v.01Zm-6.71-3.87 6.69 3.74 6.24-3.49-6.69-3.73-6.24 3.48Z"/><path fill="#463615" stroke="#463615" stroke-miterlimit="10" stroke-width=".17" d="m71.91 24.11-6.97-3.89 6.47-3.61 6.97 3.88-6.47 3.63v-.01Zm-6.73-3.88 6.72 3.75 6.24-3.5-6.72-3.74-6.24 3.49Z"/><path fill="#463615" stroke="#463615" stroke-miterlimit="10" stroke-width=".17" d="m78.77 27.95-6.99-3.9 6.47-3.63 6.99 3.89-6.47 3.64Zm-6.75-3.9 6.74 3.76L85 24.3l-6.74-3.75-6.24 3.5Z"/><path fill="#463615" stroke="#463615" stroke-miterlimit="10" stroke-width=".17" d="m85.66 31.79-7.01-3.91 6.47-3.64 7.01 3.9-6.47 3.65Zm-6.77-3.91 6.76 3.77 6.24-3.52-6.76-3.76-6.24 3.51Z"/><path fill="#463615" stroke="#463615" stroke-miterlimit="10" stroke-width=".17" d="m92.56 35.65-7.03-3.93L92 28.07l7.03 3.91-6.47 3.66v.01Zm-6.79-3.92 6.78 3.79 6.24-3.53-6.78-3.77-6.24 3.52v-.01Z"/><path fill="#463615" stroke="#463615" stroke-miterlimit="10" stroke-width=".17" d="m99.5 39.52-7.06-3.94 6.47-3.66 7.06 3.93-6.47 3.67Zm-6.82-3.94 6.8 3.8 6.24-3.54-6.8-3.79-6.24 3.53Z"/><path fill="#463615" stroke="#463615" stroke-miterlimit="10" stroke-width=".17" d="m106.45 43.4-7.08-3.95 6.47-3.67 7.08 3.94-6.47 3.69v-.01Zm-6.84-3.95 6.83 3.81 6.24-3.56-6.83-3.8-6.24 3.54v.01ZM51.87 20.04l-6.92-3.88 6.49-3.6 6.92 3.86-6.49 3.61v.01Zm-6.68-3.87 6.67 3.74 6.26-3.49-6.67-3.73-6.26 3.47v.01Z"/><path fill="#463615" stroke="#463615" stroke-miterlimit="10" stroke-width=".17" d="m58.69 23.86-6.94-3.89 6.49-3.61 6.94 3.88-6.49 3.62Zm-6.7-3.89 6.69 3.75 6.26-3.5-6.69-3.74-6.26 3.49Z"/><path fill="#463615" stroke="#463615" stroke-miterlimit="10" stroke-width=".17" d="m65.53 27.69-6.97-3.9 6.49-3.62 6.97 3.89-6.49 3.64v-.01Zm-6.72-3.9 6.72 3.76 6.26-3.51-6.72-3.75-6.26 3.5Z"/><path fill="#463615" stroke="#463615" stroke-miterlimit="10" stroke-width=".17" d="m72.4 31.53-6.99-3.91 6.49-3.64 6.99 3.9-6.49 3.65Zm-6.75-3.91 6.74 3.77 6.26-3.52-6.74-3.76-6.26 3.51Z"/><path fill="#463615" stroke="#463615" stroke-miterlimit="10" stroke-width=".17" d="m79.28 35.39-7.01-3.93 6.49-3.65 7.01 3.91-6.49 3.66v.01Zm-6.77-3.92 6.76 3.79 6.26-3.53-6.76-3.77-6.26 3.52v-.01Z"/><path fill="#463615" stroke="#463615" stroke-miterlimit="10" stroke-width=".17" d="m86.19 39.25-7.03-3.94 6.49-3.66 7.03 3.93-6.49 3.67Zm-6.79-3.93 6.78 3.8 6.26-3.54-6.78-3.79-6.26 3.53Z"/><path fill="#463615" stroke="#463615" stroke-miterlimit="10" stroke-width=".17" d="m93.12 43.14-7.06-3.95 6.49-3.67 7.06 3.94-6.49 3.68Zm-6.82-3.95L93.1 43l6.26-3.55-6.8-3.8-6.26 3.54Z"/><path fill="#463615" stroke="#463615" stroke-miterlimit="10" stroke-width=".17" d="m100.07 47.03-7.08-3.96 6.49-3.68 7.08 3.95-6.49 3.7v-.01Zm-6.84-3.96 6.83 3.82 6.26-3.57-6.83-3.81-6.26 3.56ZM45.48 23.6l-6.92-3.89 6.51-3.61 6.92 3.87-6.51 3.62v.01Zm-6.68-3.88 6.67 3.75 6.28-3.5-6.67-3.74-6.28 3.49Z"/><path fill="#463615" stroke="#463615" stroke-miterlimit="10" stroke-width=".17" d="m52.3 27.43-6.94-3.9 6.51-3.62 6.94 3.89-6.51 3.64v-.01Zm-6.71-3.9 6.69 3.76 6.28-3.51-6.69-3.75-6.28 3.5Z"/><path fill="#463615" stroke="#463615" stroke-miterlimit="10" stroke-width=".17" d="m59.14 31.27-6.97-3.91 6.51-3.64 6.97 3.9-6.51 3.65Zm-6.73-3.91 6.72 3.77 6.28-3.52-6.72-3.76-6.28 3.51Z"/><path fill="#463615" stroke="#463615" stroke-miterlimit="10" stroke-width=".17" d="m66 35.13-6.99-3.93 6.51-3.65 6.99 3.91L66 35.12v.01Zm-6.75-3.92 6.74 3.78 6.28-3.53-6.74-3.77-6.28 3.52Z"/><path fill="#463615" stroke="#463615" stroke-miterlimit="10" stroke-width=".17" d="m72.89 38.99-7.01-3.94 6.51-3.66 7.01 3.93-6.51 3.67Zm-6.78-3.93 6.76 3.8 6.28-3.54-6.76-3.79-6.28 3.53Z"/><path fill="#463615" stroke="#463615" stroke-miterlimit="10" stroke-width=".17" d="m79.79 42.87-7.03-3.95 6.51-3.67 7.03 3.94-6.51 3.68ZM73 38.93l6.78 3.81 6.28-3.55-6.78-3.8L73 38.93Z"/><path fill="#463615" stroke="#463615" stroke-miterlimit="10" stroke-width=".17" d="m86.72 46.77-7.06-3.96 6.51-3.68 7.06 3.95-6.51 3.7v-.01Zm-6.81-3.96 6.8 3.82 6.28-3.57-6.8-3.81-6.28 3.55v.01Z"/><path fill="#463615" stroke="#463615" stroke-miterlimit="10" stroke-width=".17" d="m93.68 50.67-7.08-3.98 6.51-3.7 7.08 3.96-6.51 3.71v.01Zm-6.84-3.97 6.83 3.83 6.28-3.58-6.83-3.82-6.28 3.57Z"/><path fill="#A7C96D" stroke="#463615" stroke-miterlimit="10" stroke-width=".48" d="M30.72 32.4c.32.69-.22 1.38-1.25 1.58-1.1.21-2.43-.19-2.92-.96-.52-.82.14-1.63 1.43-1.77 1.2-.12 2.4.41 2.74 1.14v.01Z"/><path fill="#A8B081" stroke="#463615" stroke-miterlimit="10" stroke-width=".34" d="M65.13 52.06c.32.69-.22 1.38-1.25 1.58-1.1.21-2.43-.19-2.92-.96-.52-.82.14-1.63 1.43-1.77 1.2-.12 2.4.41 2.74 1.14v.01Z"/><path fill="#CBBFAB" stroke="#463615" stroke-miterlimit="10" stroke-width=".34" d="M60.22 15.9c.32.69-.22 1.38-1.25 1.58-1.1.21-2.43-.19-2.92-.96-.52-.82.14-1.63 1.43-1.77 1.2-.12 2.4.41 2.74 1.14v.01Z"/><path fill="#F7E2B7" stroke="#463615" stroke-miterlimit="10" stroke-width=".48" d="M94.62 35.21c.32.69-.22 1.38-1.25 1.58-1.1.21-2.43-.19-2.92-.96-.52-.82.14-1.63 1.43-1.77 1.2-.12 2.4.41 2.74 1.14v.01Z"/><path fill="#463615" stroke="#463615" stroke-miterlimit="10" stroke-width=".17" d="m85.57 31.72-1.06-14.79.17.01 1.06 14.78h-.17Z"/><path fill="#463615" stroke="#463615" stroke-miterlimit="10" stroke-width=".17" d="M71.91 24.09 71.9 24l26.44.52.01.09-26.44-.52Z"/><path fill="#B5C6DB" d="m39.96 51.24-.02.05h-.05l-.65.06-2.87.23h-.06l-.04-.03-2.81-1.78v.07l.3 2.43L36.55 54l.06.04h.06l3.51-.34h.05l.04-.11.8-1.93-.28-2.28v-.11l-.84 1.96.01.01Zm-6.15.99-.28-2.35 2.73 1.73.28 2.32-2.72-1.7h-.01Zm2.84 1.75-.28-2.35 3.52-.28.28 2.3-3.51.33h-.01Zm4.36-2.32-.76 1.83-.27-2.19.76-1.81.26 2.18.01-.01Z"/><path fill="#463615" d="M40.81 49.24h-.02c-.02 0-.04 0-.05.02l-.02.04-.82 1.94-3.57.28-2.8-1.77-.04-.02h-.05s-.02.01-.02.02v.03l.3 2.5s.01.03.02.04l2.84 1.77h.03l3.62-.34c.02 0 .03-.01.04-.02v-.01l.84-2.02v-.03l-.29-2.39v-.02l-.01-.01v-.01Zm-.56 4.25-.04.1-.02.06h-.02l-3.51.33h-.03l-.02-.01-.06-.04-2.72-1.7-.28-2.35 2.73 1.73h.02v.01h.09l3.52-.28h.05c.02 0 .04-.02.04-.03l.76-1.83.26 2.18-.76 1.83h-.01Z"/><path fill="#AA322C" d="m40.75 49.48.26 2.18-.76 1.83-.26-2.19.76-1.82Z"/><path fill="#912926" d="m39.89 51.35.28 2.3-3.52.33-.28-2.35 3.52-.28Z"/><path fill="#AA322C" d="m36.26 51.61.27 2.32-2.72-1.7-.28-2.35 2.73 1.73Z"/><path fill="#BF3A30" d="m39.93 51.29.85-2.01-2.7-1.79-3.7.2-.92 2.08 2.85 1.81 3.62-.29Z"/><path stroke="#912926" stroke-miterlimit="10" stroke-width=".12" d="m36.45 51.23-2.4-1.53.65-1.48 3.27-.19 2.29 1.52-.6 1.44-3.21.24Z"/><path fill="#F27A76" d="m39.68 50.93-3.25.25-2.46-1.56.69-1.55 3.31-.19 2.34 1.55-.64 1.51.01-.01Zm-3.23.14 3.16-.24.58-1.37-2.25-1.48-3.21.19-.63 1.41 2.35 1.5v-.01Z"/><path fill="#463615" d="m40.81 49.24-2.7-1.79s-.03-.01-.03 0l-3.7.2s-.04.01-.05.03l-.92 2.07v.02c0 .02 0 .04.02.05l.04.03.06.04 2.73 1.73h.02v.01h.09l3.52-.28h.05c.02 0 .04-.02.04-.03l.76-1.83.04-.1.04-.09v-.05l-.01-.01Zm-4.49 2.28-2.8-1.77.89-2 3.64-.2 2.65 1.76-.82 1.94-3.57.28.01-.01Z"/><path fill="#D76161" d="m33.97 49.62.01.1 2.45 1.57 3.26-.26.64-1.49-.02-.12-.63 1.51-3.26.25-2.45-1.56Z"/><path fill="#463615" d="m39.99 51.28.27 2.21v.11h.01v.09s.01.02 0 .02v.01c0 .01-.02.02-.04.02-.03 0-.05-.02-.06-.05v-.06l-.28-2.3v-.05c0-.03.02-.05.05-.06h.03c.02 0 .03.02.03.04l-.01.02Zm-3.63.29v.05l.28 2.35v.05c0 .03-.02.05-.05.06h-.03s-.02-.02-.02-.03V54l-.01-.07-.28-2.32v-.07s.02-.02.04-.02c.03 0 .06.02.06.05h.01Z"/><path fill="#B5C6DB" d="m65.94 51.59-.02.05h-.05l-.65.06-2.87.23h-.06l-.04-.03-2.81-1.78v.07l.3 2.43 2.79 1.73.06.04h.06l3.51-.34h.05l.04-.11.8-1.93-.28-2.28v-.11l-.84 1.96.01.01Zm-6.15.99-.28-2.35 2.73 1.73.28 2.32-2.72-1.7h-.01Zm2.85 1.75-.28-2.35 3.52-.28.28 2.3-3.51.33h-.01ZM67 52.01l-.76 1.83-.27-2.19.76-1.81.26 2.18.01-.01Z"/><path fill="#463615" d="M66.79 49.59h-.02c-.02 0-.04 0-.05.02l-.02.04-.82 1.94-3.57.28-2.8-1.77-.04-.02h-.05s-.02.01-.02.02v.03l.3 2.5s.01.03.02.04l2.84 1.77h.03l3.62-.34c.02 0 .03-.01.04-.02v-.01l.84-2.02v-.03l-.29-2.39v-.02l-.01-.01v-.01Zm-.55 4.25-.04.1-.02.06h-.02l-3.51.33h-.03l-.02-.01-.06-.04-2.72-1.7-.28-2.35 2.73 1.73h.02v.01h.09l3.52-.28h.05c.02 0 .04-.02.04-.03l.76-1.83.26 2.18-.76 1.83h-.01Z"/><path fill="#AA322C" d="m66.73 49.83.27 2.18-.76 1.83-.27-2.19.76-1.82Z"/><path fill="#912926" d="m65.87 51.7.28 2.3-3.51.33-.29-2.35 3.52-.28Z"/><path fill="#AA322C" d="m62.24 51.96.28 2.32-2.73-1.7-.28-2.35 2.73 1.73Z"/><path fill="#BF3A30" d="m65.92 51.64.84-2.01-2.7-1.79-3.7.2-.92 2.08 2.85 1.81 3.63-.29Z"/><path stroke="#912926" stroke-miterlimit="10" stroke-width=".12" d="m62.43 51.58-2.4-1.53.66-1.48 3.26-.19 2.3 1.52-.61 1.44-3.21.24Z"/><path fill="#F27A76" d="m65.66 51.28-3.25.25-2.46-1.56.69-1.55 3.31-.19 2.34 1.55-.64 1.51.01-.01Zm-3.23.14 3.16-.24.58-1.37-2.25-1.48-3.21.19-.63 1.41 2.35 1.5v-.01Z"/><path fill="#463615" d="m66.79 49.59-2.7-1.79s-.03-.01-.03 0l-3.7.2s-.04.01-.05.03l-.92 2.07v.02c0 .02 0 .04.02.05l.04.03.06.04 2.73 1.73h.02v.01h.09l3.52-.28h.05c.02 0 .04-.02.04-.03l.76-1.83.04-.1.04-.09v-.05l-.01-.01Zm-4.48 2.28-2.8-1.77.89-2 3.64-.2 2.65 1.76-.82 1.94-3.57.28.01-.01Z"/><path fill="#D76161" d="m59.95 49.97.01.11 2.45 1.56 3.26-.26.64-1.49-.02-.12-.63 1.51-3.26.25-2.45-1.56Z"/><path fill="#463615" d="m65.97 51.63.27 2.21v.11h.01v.09s.01.02 0 .02v.01c0 .01-.02.02-.04.02-.03 0-.05-.02-.06-.05v-.06l-.28-2.3v-.05c0-.03.02-.05.05-.06h.03c.02 0 .03.02.03.04l-.01.02Zm-3.62.29v.05l.28 2.35v.05c0 .03-.02.05-.05.06h-.03s-.02-.02-.02-.03v-.05l-.01-.07-.28-2.32v-.07s.02-.02.04-.02c.03 0 .06.02.06.05h.01Z"/><path fill="#B5C6DB" d="m32.93 24.21-.02.05h-.05l-.65.06-2.87.23h-.06l-.04-.03-2.81-1.78v.07l.3 2.43 2.79 1.73.06.04h.06l3.51-.34h.05l.04-.11.8-1.93-.28-2.28v-.11l-.84 1.96.01.01Zm-6.14.99-.28-2.35 2.73 1.73.28 2.32-2.72-1.7h-.01Zm2.84 1.74-.28-2.35 3.52-.28.28 2.3-3.51.33h-.01Zm4.36-2.31-.76 1.83-.27-2.19.76-1.81.26 2.18.01-.01Z"/><path fill="#463615" d="M33.79 22.2h-.02c-.02 0-.04 0-.05.02l-.02.04-.82 1.94-3.57.28-2.8-1.77-.04-.02h-.05s-.02.01-.02.02v.03l.3 2.5s.01.03.02.04l2.84 1.77h.03l3.62-.34c.02 0 .03-.01.04-.02v-.01l.84-2.02v-.03l-.29-2.39v-.02l-.01-.01v-.01Zm-.56 4.25-.04.1-.02.06h-.02l-3.51.33h-.03l-.02-.01-.06-.04-2.72-1.7-.28-2.35 2.73 1.73h.02v.01h.09l3.52-.28h.05c.02 0 .04-.02.04-.03l.76-1.83.26 2.18-.76 1.83h-.01Z"/><path fill="#AA322C" d="m33.73 22.45.26 2.18-.76 1.82-.26-2.19.76-1.81Z"/><path fill="#912926" d="m32.87 24.31.27 2.3-3.51.33-.28-2.35 3.52-.28Z"/><path fill="#AA322C" d="m29.23 24.57.28 2.32-2.72-1.69-.28-2.35 2.72 1.72Z"/><path fill="#BF3A30" d="m32.91 24.26.85-2.02-2.7-1.79-3.7.21-.93 2.07 2.86 1.81 3.62-.28Z"/><path stroke="#912926" stroke-miterlimit="10" stroke-width=".12" d="m29.43 24.2-2.4-1.53.65-1.48 3.27-.19 2.29 1.51-.6 1.44-3.21.25Z"/><path fill="#F27A76" d="m32.65 23.9-3.25.25-2.46-1.56.69-1.55 3.31-.19 2.34 1.55-.64 1.51.01-.01Zm-3.22.14 3.16-.24.58-1.37-2.25-1.48-3.21.19-.63 1.41 2.35 1.5v-.01Z"/><path fill="#463615" d="m33.79 22.2-2.7-1.79s-.03-.01-.03 0l-3.7.2s-.04.01-.05.03l-.92 2.07v.02c0 .02 0 .04.02.05l.04.03.06.04 2.73 1.73h.02v.01h.09l3.52-.28h.05c.02 0 .04-.02.04-.03l.76-1.83.04-.1.04-.09v-.05l-.01-.01Zm-4.49 2.29-2.8-1.77.89-2 3.64-.2 2.65 1.76-.82 1.94-3.57.28.01-.01Z"/><path fill="#D76161" d="m26.94 22.58.02.11 2.45 1.57 3.25-.27.65-1.49-.02-.11-.64 1.51-3.25.24-2.46-1.56Z"/><path fill="#463615" d="m32.97 24.25.27 2.21v.11h.01v.09s.01.02 0 .02v.01c0 .01-.02.02-.04.02-.03 0-.05-.02-.06-.05v-.06l-.28-2.3v-.05c0-.03.02-.05.05-.06h.03c.02 0 .03.02.03.04l-.01.02Zm-3.63.28v.05l.28 2.35v.05c0 .03-.02.05-.05.06h-.03s-.02-.02-.02-.03v-.05l-.01-.07-.28-2.32v-.07s.02-.02.04-.02c.03 0 .06.02.06.05h.01Z"/><path fill="#B5C6DB" d="m20.29 39.65-.02.05h-.05l-.65.06-2.87.23h-.06l-.04-.03-2.81-1.78v.07l.3 2.43 2.79 1.73.06.04H17l3.51-.34h.05l.04-.11.8-1.93-.28-2.28v-.11l-.84 1.96.01.01Zm-6.14 1-.28-2.35 2.73 1.73.28 2.32-2.72-1.7h-.01Zm2.84 1.74-.28-2.35 3.52-.28.28 2.3-3.51.33h-.01Zm4.36-2.31-.76 1.83-.27-2.19.76-1.81.26 2.18.01-.01Z"/><path fill="#463615" d="M21.15 37.65h-.02c-.02 0-.04 0-.05.02l-.02.04-.82 1.94-3.57.28-2.8-1.77-.04-.02h-.05s-.02.01-.02.02v.03l.3 2.5s.01.03.02.04l2.84 1.77h.03l3.62-.34c.02 0 .03-.01.04-.02v-.01l.84-2.02v-.03l-.29-2.39v-.02l-.01-.01v-.01Zm-.56 4.25-.04.1-.02.06h-.02l-3.51.33h-.03l-.02-.01-.06-.04-2.72-1.7-.28-2.35 2.73 1.73h.02v.01h.09l3.52-.28h.05c.02 0 .04-.02.04-.03l.76-1.83.26 2.18-.76 1.83h-.01Z"/><path fill="#AA322C" d="m21.09 37.9.26 2.18-.76 1.82-.26-2.19.76-1.81Z"/><path fill="#912926" d="m20.23 39.76.27 2.3-3.51.33-.28-2.35 3.52-.28Z"/><path fill="#AA322C" d="m16.6 40.02.27 2.32-2.72-1.69-.28-2.36 2.73 1.73Z"/><path fill="#BF3A30" d="m20.27 39.7.85-2.01-2.7-1.79-3.7.2-.92 2.08 2.85 1.81 3.62-.29Z"/><path stroke="#912926" stroke-miterlimit="10" stroke-width=".12" d="m16.79 39.65-2.4-1.53.65-1.48 3.27-.19 2.29 1.51-.6 1.44-3.21.25Z"/><path fill="#F27A76" d="m20.02 39.34-3.25.25-2.46-1.56.69-1.55 3.31-.19 2.34 1.55-.64 1.51.01-.01Zm-3.23.15 3.16-.24.58-1.37-2.25-1.48-3.21.19-.63 1.41 2.35 1.5v-.01Z"/><path fill="#463615" d="m21.15 37.65-2.7-1.79s-.03-.01-.03 0l-3.7.2s-.04.01-.05.03l-.92 2.07v.02c0 .02 0 .04.02.05l.04.03.06.04 2.73 1.73h.02v.01h.09l3.52-.28h.05c.02 0 .04-.02.04-.03l.76-1.83.04-.1.04-.09v-.05l-.01-.01Zm-4.49 2.28-2.8-1.77.89-2 3.64-.2 2.65 1.76-.82 1.94-3.57.28.01-.01Z"/><path fill="#D76161" d="m14.3 38.03.02.11 2.45 1.57 3.25-.27.65-1.49-.02-.11-.63 1.5-3.26.25-2.46-1.56Z"/><path fill="#463615" d="m20.33 39.7.27 2.21v.11h.01v.09s.01.02 0 .02v.01c0 .01-.02.02-.04.02-.03 0-.05-.02-.06-.05v-.06l-.28-2.3v-.05c0-.03.02-.05.05-.06h.03c.02 0 .03.02.03.04l-.01.02Zm-3.63.28v.05l.28 2.35v.05c0 .03-.02.05-.05.06h-.03s-.02-.02-.02-.03v-.05l-.01-.07-.28-2.32v-.07s.02-.02.04-.02c.03 0 .06.02.06.05h.01Z"/><path fill="#B5C6DB" d="m82.44 35.09-.02.05h-.05l-.65.06-2.87.23h-.06l-.04-.03-2.81-1.78v.07l.3 2.43 2.79 1.73.06.04h.06l3.51-.34h.05l.04-.11.8-1.93-.28-2.28v-.11l-.84 1.96.01.01Zm-6.15.99-.28-2.35 2.73 1.73.28 2.32-2.72-1.7h-.01Zm2.85 1.75-.28-2.35 3.52-.28.28 2.3-3.51.33h-.01Zm4.36-2.32-.76 1.83-.27-2.19.76-1.81.26 2.18.01-.01Z"/><path fill="#463615" d="M83.29 33.09h-.02c-.02 0-.04 0-.05.02l-.02.04-.82 1.94-3.57.28-2.8-1.77-.04-.02h-.05s-.02.01-.02.02v.03l.3 2.5s.01.03.02.04l2.84 1.77h.03l3.62-.34c.02 0 .03-.01.04-.02v-.01l.84-2.02v-.03l-.29-2.39v-.02l-.01-.01v-.01Zm-.55 4.25-.04.1-.02.06h-.02l-3.51.33h-.03l-.02-.01-.06-.04-2.72-1.7-.28-2.35 2.73 1.73h.02v.01h.09l3.52-.28h.05c.02 0 .04-.02.04-.03l.76-1.83.26 2.18-.76 1.83h-.01Z"/><path fill="#AA322C" d="m83.23 33.33.27 2.18-.76 1.83-.27-2.19.76-1.82Z"/><path fill="#912926" d="m82.37 35.2.28 2.3-3.51.33-.29-2.35 3.52-.28Z"/><path fill="#AA322C" d="m78.74 35.46.28 2.32-2.73-1.7-.28-2.35 2.73 1.73Z"/><path fill="#BF3A30" d="m82.42 35.14.84-2.01-2.7-1.79-3.7.2-.92 2.08 2.85 1.81 3.63-.29Z"/><path stroke="#912926" stroke-miterlimit="10" stroke-width=".12" d="m78.93 35.08-2.4-1.53.66-1.48 3.26-.19 2.3 1.52-.61 1.43-3.21.25Z"/><path fill="#F27A76" d="m82.16 34.78-3.25.25-2.46-1.56.69-1.55 3.31-.19 2.34 1.55-.64 1.51.01-.01Zm-3.22.14 3.16-.24.58-1.37-2.25-1.48-3.21.19-.63 1.41 2.35 1.5v-.01Z"/><path fill="#463615" d="m83.29 33.09-2.7-1.79s-.03-.01-.03 0l-3.7.2s-.04.01-.05.03l-.92 2.07v.02c0 .02 0 .04.02.05l.04.03.06.04 2.73 1.73h.02v.01h.09l3.52-.28h.05c.02 0 .04-.02.04-.03l.76-1.83.04-.1.04-.09v-.05l-.01-.01Zm-4.48 2.28-2.8-1.77.89-2 3.64-.2 2.65 1.76-.82 1.94-3.57.28.01-.01Z"/><path fill="#D76161" d="m76.45 33.46.01.11 2.45 1.57 3.26-.26.64-1.49-.01-.12-.64 1.51-3.26.25-2.45-1.57Z"/><path fill="#463615" d="m82.47 35.13.27 2.21v.11h.01v.09s.01.02 0 .02v.01c0 .01-.02.02-.04.02-.03 0-.05-.02-.06-.05v-.06l-.28-2.3v-.05c0-.03.02-.05.05-.06h.03c.02 0 .03.02.03.04l-.01.02Zm-3.62.29v.05l.28 2.35v.05c0 .03-.02.05-.05.06h-.03s-.02-.02-.02-.03v-.05l-.01-.07-.28-2.32v-.07s.02-.02.04-.02c.03 0 .06.02.06.05h.01Z"/><path fill="#B5C6DB" d="m94.73 20.34-.02.05h-.05l-.65.06-2.87.23h-.06l-.04-.03-2.81-1.78v.07l.3 2.43 2.79 1.73.06.04h.06l3.51-.34H95l.04-.11.8-1.93-.28-2.28v-.11l-.84 1.96.01.01Zm-6.15.99-.28-2.35 2.73 1.73.28 2.32-2.72-1.7h-.01Zm2.85 1.75-.28-2.35 3.52-.28.28 2.3-3.51.33h-.01Zm4.36-2.31-.76 1.83-.27-2.19.76-1.81.26 2.18.01-.01Z"/><path fill="#463615" d="M95.58 18.34h-.02c-.02 0-.04 0-.05.02l-.02.04-.82 1.94-3.57.28-2.8-1.77-.04-.02h-.05s-.02.01-.02.02v.03l.3 2.5s.01.03.02.04l2.84 1.77h.03l3.62-.34c.02 0 .03-.01.04-.02v-.01l.84-2.02v-.03l-.29-2.39v-.02l-.01-.01v-.01Zm-.55 4.25-.04.1-.02.06h-.02l-3.51.33h-.03l-.02-.01-.06-.04-2.72-1.7-.28-2.35 2.73 1.73h.02v.01h.09l3.52-.28h.05c.02 0 .04-.02.04-.03l.76-1.83.26 2.18-.76 1.83h-.01Z"/><path fill="#1A4D90" d="m95.52 18.59.27 2.18-.76 1.82-.27-2.19.76-1.81Z"/><path fill="#1D3D71" d="m94.66 20.45.28 2.3-3.51.33-.29-2.35 3.52-.28Z"/><path fill="#1A4D90" d="m91.03 20.71.28 2.32-2.73-1.7-.28-2.35 2.73 1.73Z"/><path fill="#3667B1" d="m94.71 20.39.84-2.01-2.7-1.79-3.7.2-.92 2.08 2.85 1.81 3.63-.29Z"/><path stroke="#1D3D71" stroke-miterlimit="10" stroke-width=".12" d="m91.22 20.33-2.4-1.52.66-1.48 3.26-.19 2.3 1.51-.61 1.44-3.21.24Z"/><path fill="#6590CB" d="m94.45 20.03-3.25.25-2.46-1.56.69-1.55 3.31-.19 2.34 1.55-.64 1.51.01-.01Zm-3.23.15 3.16-.24.58-1.37-2.25-1.48-3.21.19-.63 1.41 2.35 1.5v-.01Z"/><path fill="#463615" d="m95.58 18.34-2.7-1.79s-.03-.01-.03 0l-3.7.2s-.04.01-.05.03l-.92 2.07v.02c0 .02 0 .04.02.05l.04.03.06.04 2.73 1.73h.02v.01h.09l3.52-.28h.05c.02 0 .04-.02.04-.03l.76-1.83.04-.1.04-.09v-.05l-.01-.01Zm-4.48 2.28-2.8-1.77.89-2 3.64-.2 2.65 1.76-.82 1.94-3.57.28.01-.01Z"/><path fill="#1A4D90" d="m88.74 18.72.01.11 2.45 1.57 3.26-.27.64-1.49-.02-.11-.63 1.5-3.26.25-2.45-1.56Z"/><path fill="#463615" d="m94.76 20.39.27 2.21v.11h.01v.09s.01.02 0 .02v.01c0 .01-.02.02-.04.02-.03 0-.05-.02-.06-.05v-.06l-.28-2.3v-.05c0-.03.02-.05.05-.06h.03c.02 0 .03.02.03.04l-.01.02Zm-3.62.28v.05l.28 2.35v.05c0 .03-.02.05-.05.06h-.03s-.02-.02-.02-.03v-.05l-.01-.07-.28-2.32v-.07s.02-.02.04-.02c.03 0 .06.02.06.05h.01Z"/><path fill="#B5C6DB" d="m45.57 32.28-.02.05h-.05l-.65.06-2.87.23h-.06l-.04-.03-2.81-1.78v.07l.3 2.43 2.79 1.73.06.04h.06l3.51-.34h.05l.04-.11.8-1.93-.28-2.28v-.11l-.84 1.96.01.01Zm-6.14.99-.28-2.35 2.73 1.73.28 2.32-2.72-1.7h-.01Zm2.84 1.75-.28-2.35 3.52-.28.28 2.3-3.51.33h-.01Zm4.36-2.32-.76 1.83-.27-2.19.76-1.81.26 2.18.01-.01Z"/><path fill="#463615" d="M46.43 30.28h-.02c-.02 0-.04 0-.05.02l-.02.04-.82 1.94-3.57.28-2.8-1.77-.04-.02h-.05s-.02.01-.02.02v.03l.3 2.5s.01.03.02.04l2.84 1.77h.03l3.62-.34c.02 0 .03-.01.04-.02v-.01l.84-2.02v-.03l-.29-2.39v-.02l-.01-.01v-.01Zm-.56 4.25-.04.1-.02.06h-.02l-3.51.33h-.03l-.02-.01-.06-.04-2.72-1.7-.28-2.35 2.73 1.73h.02v.01h.09l3.52-.28h.05c.02 0 .04-.02.04-.03l.76-1.83.26 2.18-.76 1.83h-.01Z"/><path fill="#1A4D90" d="m46.37 30.52.26 2.18-.76 1.83-.26-2.19.76-1.82Z"/><path fill="#1D3D71" d="m45.5 32.39.28 2.3-3.51.33-.28-2.35 3.51-.28Z"/><path fill="#1A4D90" d="m41.87 32.65.28 2.32-2.72-1.7-.28-2.35 2.72 1.73Z"/><path fill="#3667B1" d="m45.55 32.33.85-2.01-2.7-1.79-3.7.2-.93 2.08 2.86 1.81 3.62-.29Z"/><path stroke="#1D3D71" stroke-miterlimit="10" stroke-width=".12" d="m42.07 32.27-2.4-1.53.65-1.48 3.27-.19 2.29 1.52-.61 1.44-3.2.24Z"/><path fill="#6590CB" d="m45.29 31.97-3.25.25-2.46-1.56.69-1.55 3.31-.19 2.34 1.55-.64 1.51.01-.01Zm-3.22.14 3.16-.24.58-1.37-2.25-1.48-3.21.19-.63 1.41 2.35 1.5v-.01Z"/><path fill="#463615" d="m46.43 30.28-2.7-1.79s-.03-.01-.03 0l-3.7.2s-.04.01-.05.03l-.92 2.07v.02c0 .02 0 .04.02.05l.04.03.06.04 2.73 1.73h.02v.01h.09l3.52-.28h.05c.02 0 .04-.02.04-.03l.76-1.83.04-.1.04-.09v-.05l-.01-.01Zm-4.49 2.28-2.8-1.77.89-2 3.64-.2 2.65 1.76-.82 1.94-3.57.28.01-.01Z"/><path fill="#1A4D90" d="m39.58 30.66.02.11 2.45 1.56 3.25-.26.65-1.49-.02-.12-.64 1.51-3.25.25-2.46-1.56Z"/><path fill="#463615" d="m45.6 32.32.27 2.21v.11h.01v.09s.01.02 0 .02v.01c0 .01-.02.02-.04.02-.03 0-.05-.02-.06-.05v-.06l-.28-2.3v-.05c0-.03.02-.05.05-.06h.03c.02 0 .03.02.03.04l-.01.02Zm-3.62.29v.05l.28 2.35v.05c0 .03-.02.05-.05.06h-.03s-.02-.02-.02-.03v-.05l-.01-.07-.28-2.32v-.07s.02-.02.04-.02c.03 0 .06.02.06.05h.01Z"/><path fill="#B5C6DB" d="m95.78 42.46-.02.05h-.05l-.65.06-2.87.23h-.06l-.04-.03-2.81-1.78v.07l.3 2.43 2.79 1.73.06.04h.06l3.51-.34h.05l.04-.11.8-1.93-.28-2.28v-.11l-.84 1.96.01.01Zm-6.15.99-.28-2.35 2.73 1.73.28 2.32-2.72-1.7h-.01Zm2.85 1.75-.28-2.35 3.52-.28.28 2.3-3.51.33h-.01Zm4.36-2.32-.76 1.83-.27-2.19.76-1.81.26 2.18.01-.01Z"/><path fill="#463615" d="M96.64 40.46h-.02c-.02 0-.04 0-.05.02l-.02.04-.82 1.94-3.57.28-2.8-1.77-.04-.02h-.05s-.02.01-.02.02V41l.3 2.5s.01.03.02.04l2.84 1.77h.03l3.62-.34c.02 0 .03-.01.04-.02v-.01l.84-2.02v-.03l-.29-2.39v-.02l-.01-.01v-.01Zm-.56 4.25-.04.1-.02.06H96l-3.51.33h-.03l-.02-.01-.06-.04-2.72-1.7-.28-2.35 2.73 1.73h.02v.01h.09l3.52-.28h.05c.02 0 .04-.02.04-.03l.76-1.83.26 2.18-.76 1.83h-.01Z"/><path fill="#1A4D90" d="m96.58 40.71.26 2.17-.76 1.83-.27-2.19.77-1.81Z"/><path fill="#1D3D71" d="m95.71 42.57.28 2.3-3.51.33-.28-2.35 3.51-.28Z"/><path fill="#1A4D90" d="m92.08 42.83.28 2.32-2.73-1.7-.28-2.35 2.73 1.73Z"/><path fill="#3667B1" d="m95.76 42.51.84-2.01-2.7-1.79-3.69.2-.93 2.08 2.85 1.81 3.63-.29Z"/><path stroke="#1D3D71" stroke-miterlimit="10" stroke-width=".12" d="m92.28 42.45-2.41-1.53.66-1.48 3.26-.19 2.3 1.52-.61 1.44-3.2.24Z"/><path fill="#6590CB" d="m95.5 42.15-3.25.25-2.46-1.56.69-1.55 3.31-.19 2.34 1.55-.64 1.51.01-.01Zm-3.22.15 3.16-.24.58-1.37-2.25-1.48-3.21.19-.63 1.41 2.35 1.5v-.01Z"/><path fill="#463615" d="m96.64 40.46-2.7-1.79s-.03-.01-.03 0l-3.7.2s-.04.01-.05.03l-.92 2.07v.02c0 .02 0 .04.02.05l.04.03.06.04 2.73 1.73h.02v.01h.09l3.52-.28h.05c.02 0 .04-.02.04-.03l.76-1.83.04-.1.04-.09v-.05l-.01-.01Zm-4.49 2.28-2.8-1.77.89-2 3.64-.2 2.65 1.76-.82 1.94-3.57.28.01-.01Z"/><path fill="#1A4D90" d="m89.79 40.84.01.11 2.45 1.56 3.26-.26.64-1.49-.01-.11-.64 1.5-3.25.25-2.46-1.56Z"/><path fill="#463615" d="m95.81 42.5.27 2.21v.11h.01v.09s.01.02 0 .02v.01c0 .01-.02.02-.04.02-.03 0-.05-.02-.06-.05v-.06l-.28-2.3v-.05c0-.03.02-.05.05-.06h.03c.02 0 .03.02.03.04l-.01.02Zm-3.62.29v.05l.28 2.35v.05c0 .03-.02.05-.05.06h-.03s-.02-.02-.02-.03v-.05l-.01-.07-.28-2.32v-.07s.02-.02.04-.02c.03 0 .06.02.06.05h.01Z"/><path fill="#B5C6DB" d="m70.5 34.04-.02.05h-.05l-.65.06-2.87.23h-.06l-.04-.03L64 32.57v.07l.3 2.43 2.79 1.73.06.04h.06l3.51-.34h.05l.04-.11.8-1.93-.28-2.28v-.11l-.84 1.96.01.01Zm-6.14.99-.28-2.35 2.73 1.73.28 2.32-2.72-1.7h-.01Zm2.84 1.74-.28-2.35 3.52-.28.28 2.3-3.51.33h-.01Zm4.36-2.31-.76 1.83-.27-2.19.76-1.81.26 2.18.01-.01Z"/><path fill="#463615" d="M71.36 32.03h-.02c-.02 0-.04 0-.05.02l-.02.04-.82 1.94-3.57.28-2.8-1.77-.04-.02h-.05s-.02.01-.02.02v.03l.3 2.5s.01.03.02.04l2.84 1.77h.03l3.62-.34c.02 0 .03-.01.04-.02v-.01l.84-2.02v-.03l-.29-2.39v-.02l-.01-.01v-.01Zm-.56 4.26-.04.1-.02.06h-.02l-3.51.33h-.03l-.02-.01-.06-.04-2.72-1.7-.28-2.35 2.73 1.73h.02v.01h.09l3.52-.28h.05c.02 0 .04-.02.04-.03l.76-1.83.26 2.18-.76 1.83h-.01Z"/><path fill="#1A4D90" d="m71.3 32.28.26 2.18-.76 1.83-.27-2.2.77-1.81Z"/><path fill="#1D3D71" d="m70.43 34.14.28 2.31-3.51.32-.28-2.35 3.51-.28Z"/><path fill="#1A4D90" d="m66.8 34.41.28 2.31-2.72-1.69-.29-2.35 2.73 1.73Z"/><path fill="#3667B1" d="m70.48 34.09.85-2.02-2.71-1.79-3.69.21-.93 2.07 2.85 1.81 3.63-.28Z"/><path stroke="#1D3D71" stroke-miterlimit="10" stroke-width=".12" d="m67 34.03-2.41-1.53.66-1.48 3.26-.19 2.3 1.51-.61 1.44-3.2.25Z"/><path fill="#6590CB" d="m70.22 33.73-3.25.25-2.46-1.56.69-1.55 3.31-.19 2.34 1.55-.64 1.51.01-.01Zm-3.22.14 3.16-.24.58-1.37-2.25-1.48-3.21.19-.63 1.41 2.35 1.5v-.01Z"/><path fill="#463615" d="m71.36 32.03-2.7-1.79s-.03-.01-.03 0l-3.7.2s-.04.01-.05.03l-.92 2.07v.02c0 .02 0 .04.02.05l.04.03.06.04 2.73 1.73h.02v.01h.09l3.52-.28h.05c.02 0 .04-.02.04-.03l.76-1.83.04-.1.04-.09v-.05l-.01-.01Zm-4.49 2.29-2.8-1.77.89-2 3.64-.2 2.65 1.76-.82 1.94-3.57.28.01-.01Z"/><path fill="#1A4D90" d="m64.51 32.41.01.11 2.45 1.57 3.26-.27.65-1.49-.02-.11-.64 1.51-3.25.25-2.46-1.57Z"/><path fill="#463615" d="m70.53 34.08.27 2.21v.11h.01v.09s.01.02 0 .02v.01c0 .01-.02.02-.04.02-.03 0-.05-.02-.06-.05v-.06l-.28-2.3v-.05c0-.03.02-.05.05-.06h.03c.02 0 .03.02.03.04l-.01.02Zm-3.62.28v.05l.28 2.35v.05c0 .03-.02.05-.05.06h-.03s-.02-.02-.02-.03v-.05l-.01-.07-.28-2.32v-.07s.02-.02.04-.02c.03 0 .06.02.06.05h.01Z"/><path fill="#B5C6DB" d="m61.37 16.13-.02.05h-.05l-.65.06-2.87.23h-.06l-.04-.03-2.81-1.78v.07l.3 2.43 2.79 1.73.06.04h.06l3.51-.34h.05l.04-.11.8-1.93-.28-2.28v-.11l-.84 1.96.01.01Zm-6.14.99-.28-2.35 2.73 1.73.28 2.32-2.72-1.7h-.01Zm2.84 1.75-.28-2.35 3.52-.28.28 2.3-3.51.33h-.01Zm4.36-2.32-.76 1.83-.27-2.19.76-1.81.26 2.18.01-.01Z"/><path fill="#463615" d="M62.23 14.13h-.02c-.02 0-.04 0-.05.02l-.02.04-.82 1.94-3.57.28-2.8-1.77-.04-.02h-.05s-.02.01-.02.02v.03l.3 2.5s.01.03.02.04L58 18.98h.03l3.62-.34c.02 0 .03-.01.04-.02v-.01l.84-2.02v-.03l-.29-2.39v-.02l-.01-.01v-.01Zm-.56 4.25-.04.1-.02.06h-.02l-3.51.33h-.03l-.02-.01-.06-.04-2.72-1.7-.28-2.35 2.73 1.73h.02v.01h.09l3.52-.28h.05c.02 0 .04-.02.04-.03l.76-1.83.26 2.18-.76 1.83h-.01Z"/><path fill="#1A4D90" d="m62.17 14.37.26 2.18-.76 1.83-.26-2.19.76-1.82Z"/><path fill="#1D3D71" d="m61.3 16.24.28 2.3-3.51.33-.28-2.35 3.51-.28Z"/><path fill="#1A4D90" d="m57.67 16.5.28 2.32-2.72-1.7-.28-2.35 2.72 1.73Z"/><path fill="#3667B1" d="m61.35 16.18.85-2.01-2.71-1.79-3.69.2-.93 2.08 2.86 1.81 3.62-.29Z"/><path stroke="#1D3D71" stroke-miterlimit="10" stroke-width=".12" d="m57.87 16.12-2.41-1.53.66-1.48 3.26-.19 2.3 1.52-.61 1.44-3.2.24Z"/><path fill="#6590CB" d="m61.09 15.82-3.25.25-2.46-1.56.69-1.55 3.31-.19 2.34 1.55-.64 1.51.01-.01Zm-3.22.14 3.16-.24.58-1.37-2.25-1.48-3.21.19-.63 1.41 2.35 1.5v-.01Z"/><path fill="#463615" d="m62.23 14.13-2.7-1.79s-.03-.01-.03 0l-3.7.2s-.04.01-.05.03l-.92 2.07v.02c0 .02 0 .04.02.05l.04.03.06.04 2.73 1.73h.02v.01h.09l3.52-.28h.05c.02 0 .04-.02.04-.03l.76-1.83.04-.1.04-.09v-.05l-.01-.01Zm-4.49 2.28-2.8-1.77.89-2 3.64-.2 2.65 1.76-.82 1.94-3.57.28.01-.01Z"/><path fill="#1A4D90" d="m55.38 14.51.02.11 2.44 1.56 3.26-.26.65-1.49-.02-.12-.64 1.51-3.25.25-2.46-1.56Z"/><path fill="#463615" d="m61.4 16.17.27 2.21v.11h.01v.09s.01.02 0 .02v.01c0 .01-.02.02-.04.02-.03 0-.05-.02-.06-.05v-.06l-.28-2.3v-.05c0-.03.02-.05.05-.06h.03c.02 0 .03.02.03.04l-.01.02Zm-3.62.29v.05l.28 2.35v.05c0 .03-.02.05-.05.06h-.03s-.02-.02-.02-.03v-.05l-.01-.07-.28-2.32v-.07s.02-.02.04-.02c.03 0 .06.02.06.05h.01Z"/></svg>