<svg xmlns="http://www.w3.org/2000/svg" xmlns:xlink="http://www.w3.org/1999/xlink" viewBox="0 0 168 64"><g transform="translate(9.328 7.665)" id="ss12454004425_1"><path d="M 22.706 45.639 C 22.42 45.639 22.155 45.469 22.038 45.212 L 21.07 43.086 C 17.695 35.656 13.059 30.404 6.903 27.012 L 1.115 23.827 C 0.88 23.695 0.734 23.452 0.734 23.18 C 0.734 22.908 0.88 22.665 1.115 22.532 L 6.903 19.347 C 13.059 15.971 17.688 10.711 21.07 3.281 L 22.038 1.155 C 22.155 0.89 22.42 0.728 22.706 0.728 L 127.57 0.728 C 127.856 0.728 128.12 0.897 128.238 1.155 L 129.206 3.281 C 132.581 10.711 137.217 15.963 143.372 19.347 L 149.161 22.532 C 149.395 22.665 149.542 22.908 149.542 23.18 C 149.542 23.452 149.395 23.695 149.161 23.827 L 143.372 27.012 C 137.224 30.396 132.588 35.656 129.206 43.086 L 128.238 45.212 C 128.12 45.477 127.856 45.639 127.57 45.639 Z" fill="rgb(54,103,177)"></path><path d="M 127.563 1.471 L 128.531 3.597 C 131.979 11.182 136.718 16.544 143.013 20.002 L 148.801 23.187 L 143.013 26.372 C 136.718 29.837 131.979 35.207 128.531 42.784 L 127.563 44.91 L 22.706 44.91 L 21.737 42.784 C 18.289 35.207 13.557 29.837 7.256 26.372 L 1.467 23.187 L 7.256 20.002 C 13.55 16.544 18.289 11.174 21.737 3.597 L 22.706 1.471 L 127.57 1.471 M 127.563 0 L 22.706 0 C 22.133 0 21.613 0.338 21.37 0.861 L 20.402 2.987 C 17.086 10.269 12.56 15.411 6.551 18.714 L 0.763 21.9 C 0.293 22.157 0 22.65 0 23.187 C 0 23.724 0.293 24.217 0.763 24.474 L 6.551 27.66 C 12.56 30.963 17.093 36.112 20.402 43.388 L 21.37 45.514 C 21.605 46.036 22.133 46.374 22.706 46.374 L 127.57 46.374 C 128.142 46.374 128.663 46.036 128.905 45.514 L 129.874 43.388 C 133.182 36.112 137.716 30.963 143.724 27.66 L 149.513 24.474 C 149.982 24.217 150.276 23.724 150.276 23.187 C 150.276 22.65 149.982 22.157 149.513 21.9 L 143.724 18.714 C 137.716 15.411 133.182 10.269 129.874 2.987 L 128.905 0.861 C 128.67 0.338 128.142 0 127.57 0 Z" fill="rgb(70,54,21)"></path><g transform="translate(9.002 5.091)" id="ss12454004425_4"><path d="M 84.169 36.178 L 16.03 36.178 C 12.127 27.586 6.669 21.76 0 18.089 C 6.669 14.418 12.127 8.592 16.03 0 L 84.169 0" fill="transparent" stroke="rgb(252,250,245)" stroke-miterlimit="10" stroke-dasharray=""></path><path d="M 48.096 0.007 L 116.235 0.007 C 120.138 8.6 125.597 14.426 132.265 18.097 C 125.597 21.767 120.138 27.594 116.235 36.186 L 48.096 36.186" fill="transparent" stroke="rgb(252,250,245)" stroke-miterlimit="10" stroke-dasharray=""></path></g><g transform="translate(31.905 11.373)" id="ss12454004425_7"><path d="M 27.137 1.354 L 19.544 1.354 C 19.492 1.354 19.448 1.376 19.412 1.405 L 15.824 4.804 C 15.788 4.841 15.766 4.892 15.766 4.943 L 15.766 20.988 C 15.766 21.098 15.678 21.186 15.568 21.186 L 13.866 21.186 C 13.755 21.186 13.667 21.098 13.667 20.988 L 13.667 4.899 C 13.667 4.848 13.645 4.796 13.609 4.76 L 10.381 1.405 C 10.344 1.368 10.293 1.346 10.241 1.346 L 2.502 1.376 L 0.198 1.376 C 0.088 1.376 0 1.464 0 1.574 L 0 3.818 L 2.289 3.818 L 2.12 21.179 L 0 21.179 L 0 23.423 C 0 23.533 0.088 23.621 0.198 23.621 L 6.023 23.621 C 6.133 23.621 6.221 23.533 6.221 23.423 L 6.221 3.95 C 6.221 3.84 6.309 3.752 6.419 3.752 L 9.17 3.752 C 9.28 3.752 9.368 3.84 9.368 3.95 L 9.368 23.415 C 9.368 23.526 9.456 23.614 9.566 23.614 L 15.949 23.614 C 15.949 23.614 15.956 23.614 15.964 23.614 L 27.144 23.614 C 27.254 23.614 27.342 23.526 27.342 23.415 L 27.342 15.147 C 27.342 15.036 27.254 14.948 27.144 14.948 L 24.188 14.948 L 23.065 14.948 L 21.194 14.948 C 21.084 14.948 20.996 15.036 20.996 15.147 L 20.996 17.177 C 20.996 17.287 21.084 17.376 21.194 17.376 L 22.867 17.376 C 22.977 17.376 23.065 17.464 23.065 17.574 L 23.065 20.98 C 23.065 21.091 22.977 21.179 22.867 21.179 L 19.867 21.179 C 19.757 21.179 19.668 21.091 19.668 20.98 L 19.668 5.355 C 19.668 5.245 19.757 5.157 19.867 5.157 L 24.202 5.157 C 24.268 5.76 23.843 6.143 23.168 6.407 C 22.537 6.26 21.965 6.327 21.701 6.371 C 21.605 6.385 21.547 6.466 21.547 6.562 L 21.547 8.364 C 21.547 8.475 21.635 8.563 21.745 8.563 L 27.137 8.563 C 27.247 8.563 27.335 8.475 27.335 8.364 L 27.335 1.538 C 27.335 1.427 27.247 1.339 27.137 1.339 Z" fill="rgb(252,250,245)"></path><path d="M 56.328 1.552 C 56.328 1.442 56.24 1.354 56.13 1.354 L 50.173 1.354 C 50.048 1.354 49.945 1.457 49.945 1.589 L 49.945 17.346 C 49.945 17.479 49.842 17.582 49.71 17.582 L 47.033 17.582 C 46.901 17.582 46.798 17.479 46.798 17.346 L 46.798 1.596 C 46.798 1.471 46.695 1.368 46.57 1.368 L 44.164 1.368 L 38.955 1.368 C 38.955 1.368 38.948 1.368 38.941 1.368 L 36.278 1.368 C 36.146 1.368 36.043 1.471 36.043 1.604 L 36.043 17.354 C 36.043 17.486 35.94 17.589 35.808 17.589 L 33.13 17.589 C 32.998 17.589 32.896 17.486 32.896 17.354 L 32.896 1.596 C 32.896 1.464 32.793 1.361 32.661 1.361 L 29.008 1.361 C 28.883 1.361 28.78 1.464 28.78 1.589 L 28.78 19.774 C 28.78 19.899 28.883 20.002 29.008 20.002 L 36.637 20.031 C 36.872 20.031 37.099 19.936 37.261 19.767 L 40.107 16.75 C 40.261 16.589 40.349 16.368 40.349 16.14 L 40.349 3.987 C 40.349 3.877 40.437 3.789 40.547 3.789 L 42.301 3.789 C 42.411 3.789 42.499 3.877 42.499 3.987 L 42.499 16.14 C 42.499 16.368 42.587 16.581 42.741 16.743 L 45.595 19.767 C 45.756 19.936 45.976 20.031 46.211 20.031 L 49.791 20.017 C 49.901 20.017 49.989 20.105 49.989 20.215 L 49.989 20.944 C 49.989 21.054 49.901 21.142 49.791 21.142 L 28.905 21.142 C 28.795 21.142 28.707 21.23 28.707 21.341 L 28.707 23.629 L 53.87 23.629 C 53.98 23.629 54.068 23.54 54.068 23.43 L 54.068 3.995 C 54.068 3.884 54.156 3.796 54.266 3.796 L 56.335 3.796 L 56.335 1.552 Z" fill="rgb(252,250,245)"></path><path d="M 55.689 8.85 L 55.689 11.093 L 57.59 11.093 L 57.59 20.554 C 57.59 20.907 57.303 21.186 56.959 21.186 L 55.689 21.186 L 55.689 23.629 L 69.1 23.629 C 69.21 23.629 69.298 23.54 69.298 23.43 L 69.298 19.06 L 65.043 19.06 L 65.043 20.311 C 65.043 20.531 64.984 20.745 64.874 20.936 L 64.728 21.194 L 61.83 21.194 C 61.646 21.194 61.507 21.024 61.536 20.84 L 61.676 20.083 C 61.69 20.002 61.698 19.921 61.698 19.84 L 61.698 17.361 L 65.359 17.361 L 65.359 14.919 L 62.079 14.919 C 61.867 14.919 61.698 14.749 61.698 14.536 L 61.698 11.689 C 61.698 11.358 61.969 11.086 62.299 11.086 L 65.234 11.086 L 64.926 12.131 C 64.874 12.307 65.006 12.484 65.19 12.484 L 69.298 12.484 L 69.298 11.086 L 69.298 8.644 L 55.888 8.644 C 55.777 8.644 55.689 8.732 55.689 8.842 Z" fill="rgb(252,250,245)"></path><path d="M 57.7 7.739 L 61.83 7.739 C 61.896 7.739 61.962 7.724 62.021 7.687 L 62.828 7.253 C 62.952 7.187 63.092 7.187 63.216 7.253 L 64.023 7.687 C 64.082 7.717 64.148 7.739 64.214 7.739 L 68.344 7.739 C 68.41 7.739 68.462 7.687 68.462 7.621 L 68.462 6.54 C 68.462 6.488 68.425 6.437 68.374 6.422 L 64.398 5.252 C 63.466 5.083 62.541 5.069 61.632 5.252 L 57.656 6.422 C 57.604 6.437 57.568 6.481 57.568 6.54 L 57.568 7.621 C 57.568 7.687 57.619 7.739 57.685 7.739 Z" fill="rgb(252,250,245)"></path><path d="M 84.381 21.186 C 84.271 21.186 84.183 21.098 84.183 20.988 L 84.183 12.182 C 84.183 12.131 84.161 12.079 84.125 12.042 L 80.897 8.688 C 80.86 8.651 80.809 8.629 80.757 8.629 L 73.018 8.658 L 70.714 8.658 C 70.604 8.658 70.516 8.747 70.516 8.857 L 70.516 11.101 L 72.805 11.101 L 72.636 21.171 L 70.516 21.171 L 70.516 23.415 C 70.516 23.526 70.604 23.614 70.714 23.614 L 75.923 23.614 L 76.539 23.614 C 76.649 23.614 76.737 23.526 76.737 23.415 L 76.737 11.226 C 76.737 11.115 76.825 11.027 76.935 11.027 L 79.686 11.027 C 79.796 11.027 79.884 11.115 79.884 11.226 L 79.884 23.408 C 79.884 23.518 79.972 23.606 80.082 23.606 L 86.465 23.606 L 86.465 21.171 L 84.389 21.171 Z" fill="rgb(252,250,245)"></path><path d="M 65.175 4.296 C 65.175 4.296 66.408 3.825 66.408 2.847 L 64.53 2.847 C 64.53 2.847 64.442 2.42 65.447 2.42 L 71.807 2.42 C 71.807 2.42 72.071 3.428 73.062 4.281 C 74.052 5.135 74.294 5.892 74.294 5.892 L 81.682 5.892 C 81.865 5.892 82.034 5.826 82.173 5.709 L 84.176 4.009 C 84.345 3.862 84.448 3.649 84.448 3.428 L 84.448 0 L 80.141 0 C 78.689 0 78.344 1.361 78.344 1.361 L 80.457 1.361 L 80.457 2.773 C 80.457 3.141 80.156 3.443 79.789 3.443 L 76.759 3.443 L 76.759 1.118 L 61.316 1.118 C 59.68 1.795 60.37 4.296 60.37 4.296 Z" fill="rgb(252,250,245)"></path></g></g></svg>