<svg xmlns="http://www.w3.org/2000/svg" xmlns:xlink="http://www.w3.org/1999/xlink" viewBox="0 0 169 64"><g transform="translate(12.578 9.41)" id="ss9532510072_1"><path d="M 22.077 44.117 C 21.799 44.117 21.542 43.954 21.428 43.705 L 20.487 41.65 C 17.199 34.468 12.7 29.39 6.717 26.112 L 1.091 23.033 C 0.863 22.905 0.72 22.67 0.72 22.407 C 0.72 22.144 0.863 21.909 1.091 21.781 L 6.717 18.702 C 12.7 15.431 17.199 10.354 20.487 3.172 L 21.428 1.116 C 21.542 0.86 21.799 0.704 22.077 0.704 L 122.578 0.704 C 122.857 0.704 123.113 0.868 123.227 1.116 L 124.169 3.172 C 127.456 10.354 131.955 15.438 137.938 18.702 L 143.564 21.781 C 143.793 21.909 143.935 22.144 143.935 22.407 C 143.935 22.67 143.793 22.905 143.564 23.033 L 137.938 26.112 C 131.955 29.383 127.456 34.468 124.169 41.65 L 123.227 43.705 C 123.113 43.961 122.857 44.117 122.578 44.117 Z" fill="rgb(191,58,48)"></path><path d="M 122.571 1.422 L 123.513 3.477 C 126.864 10.802 131.463 15.993 137.589 19.335 L 143.215 22.414 L 137.589 25.493 C 131.471 28.843 126.864 34.034 123.513 41.358 L 122.571 43.413 L 22.07 43.413 L 21.129 41.358 C 17.777 34.034 13.171 28.843 7.052 25.493 L 1.426 22.414 L 7.052 19.335 C 13.171 15.993 17.777 10.802 21.129 3.477 L 22.07 1.422 Z M 122.571 0 L 22.07 0 C 21.514 0 21.007 0.327 20.772 0.832 L 19.831 2.887 C 16.615 9.92 12.208 14.898 6.368 18.091 L 0.742 21.17 C 0.285 21.419 0 21.895 0 22.414 C 0 22.933 0.285 23.41 0.742 23.659 L 6.368 26.738 C 12.208 29.931 16.615 34.908 19.831 41.941 L 20.772 43.996 C 21 44.501 21.514 44.828 22.07 44.828 L 122.571 44.828 C 123.128 44.828 123.634 44.501 123.869 43.996 L 124.81 41.941 C 128.026 34.908 132.433 29.931 138.273 26.738 L 143.9 23.659 C 144.356 23.41 144.641 22.933 144.641 22.414 C 144.641 21.895 144.356 21.419 143.9 21.17 L 138.273 18.091 C 132.433 14.898 128.034 9.927 124.81 2.887 L 123.869 0.832 C 123.641 0.327 123.128 0 122.571 0 Z" fill="rgb(70,54,21)"></path><g transform="translate(8.757 4.921)" id="ss9532510072_4"><path d="M 46.749 34.972 L 111.554 34.972 C 115.348 26.667 120.653 21.035 127.135 17.486 C 120.653 13.938 115.348 8.306 111.554 0 L 46.749 0" fill="transparent" stroke="rgb(252,250,245)" stroke-miterlimit="10" stroke-dasharray=""></path><path d="M 81.812 0.007 L 15.581 0.007 C 11.787 8.313 6.482 13.945 0 17.493 C 6.482 21.042 11.787 26.674 15.581 34.98 L 81.812 34.98" fill="transparent" stroke="rgb(252,250,245)" stroke-miterlimit="10" stroke-dasharray=""></path></g><g transform="translate(38.314 10.994)" id="ss9532510072_7"><path d="M 4.471 22.798 L 2.688 22.798 C 2.56 22.798 2.46 22.692 2.46 22.564 L 2.46 20.316 L 4.243 20.316 C 4.371 20.316 4.471 20.21 4.471 20.082 L 4.471 4.21 C 4.471 3.94 4.492 3.677 4.535 3.413 L 4.692 2.461 L 2.553 2.461 C 2.424 2.461 2.325 2.567 2.325 2.695 L 2.325 4.053 L 0 4.053 L 0 0.284 C 0 0.156 0.107 0.05 0.228 0.05 L 13.056 0.05 C 13.185 0.05 13.285 0.156 13.285 0.284 L 13.285 4.053 L 10.817 4.053 L 10.817 2.702 C 10.817 2.574 10.71 2.468 10.589 2.468 L 8.807 2.468 L 8.807 3.812 L 8.807 20.082 C 8.807 20.21 8.914 20.316 9.035 20.316 L 10.817 20.316 L 10.817 22.564 C 10.817 22.692 10.71 22.798 10.589 22.798 L 8.807 22.798 L 4.478 22.798 Z" fill="rgb(252,250,245)"></path><path d="M 69.454 2.46 L 69.454 0.235 C 69.454 0.107 69.347 0 69.226 0 L 63.272 0 L 63.272 13.625 C 63.272 13.753 63.165 13.86 63.043 13.86 L 59.778 13.86 L 59.977 13.028 C 60.013 12.878 60.027 12.729 60.027 12.572 L 60.027 0 L 55.699 0 L 53.945 0 C 53.816 0 53.716 0.107 53.716 0.235 L 53.716 2.46 L 55.471 2.46 C 55.599 2.46 55.699 2.567 55.699 2.695 L 55.699 20.224 C 55.699 20.352 55.592 20.459 55.471 20.459 L 53.959 20.459 C 53.83 20.459 53.731 20.565 53.731 20.693 L 53.731 22.592 C 53.731 22.72 53.838 22.827 53.959 22.827 L 60.12 22.827 L 60.12 16.882 C 60.12 16.754 60.227 16.647 60.348 16.647 L 63.436 16.647 L 63.25 17.593 L 63.215 17.97 L 63.215 22.827 L 69.176 22.827 C 69.304 22.827 69.404 22.72 69.404 22.592 L 69.404 20.658 C 69.404 20.53 69.297 20.423 69.176 20.423 L 67.714 20.423 C 67.586 20.423 67.486 20.316 67.486 20.188 L 67.486 2.688 C 67.486 2.56 67.593 2.453 67.714 2.453 L 69.468 2.453 Z" fill="rgb(252,250,245)"></path><path d="M 40.439 0.27 L 40.439 22.606 C 40.439 22.734 40.546 22.841 40.667 22.841 L 44.361 22.841 C 44.489 22.841 44.589 22.734 44.589 22.606 L 44.589 2.702 C 44.589 2.574 44.696 2.468 44.817 2.468 L 47.534 2.468 C 47.662 2.468 47.762 2.574 47.762 2.702 L 47.762 22.599 C 47.762 22.727 47.869 22.834 47.99 22.834 L 51.877 22.834 C 52.005 22.834 52.105 22.727 52.105 22.599 L 52.105 3.911 C 52.105 3.684 52.019 3.463 51.862 3.3 L 48.981 0.27 C 48.817 0.1 48.589 0 48.361 0 L 40.653 0.036 C 40.524 0.036 40.425 0.142 40.425 0.27 Z" fill="rgb(252,250,245)"></path><path d="M 29.629 0.05 L 37.693 0.05 L 37.693 3.904 C 37.693 4.117 37.522 4.288 37.308 4.288 L 29.243 4.288 L 29.243 0.434 C 29.243 0.221 29.415 0.05 29.629 0.05 Z" fill="rgb(252,250,245)"></path><path d="M 37.358 7.005 C 37.522 7.005 37.658 6.869 37.658 6.699 L 37.658 5.902 C 37.658 5.739 37.522 5.597 37.358 5.597 L 29.572 5.597 C 29.407 5.597 29.272 5.732 29.272 5.902 L 29.272 6.699 C 29.272 6.862 29.407 7.005 29.572 7.005 L 30.741 7.005 C 31.062 7.005 31.326 7.275 31.326 7.602 L 31.326 15.275 C 31.326 15.602 31.062 15.872 30.741 15.872 L 29.572 15.872 C 29.407 15.872 29.272 16.007 29.272 16.178 L 29.272 16.974 C 29.272 17.138 29.407 17.28 29.572 17.28 L 37.358 17.28 C 37.522 17.28 37.658 17.145 37.658 16.974 L 37.658 16.178 C 37.658 16.014 37.522 15.872 37.358 15.872 L 36.189 15.872 C 35.868 15.872 35.604 15.602 35.604 15.275 L 35.604 7.602 C 35.604 7.275 35.868 7.005 36.189 7.005 Z" fill="rgb(252,250,245)"></path><path d="M 37.308 18.588 L 29.629 18.588 C 29.416 18.588 29.243 18.76 29.243 18.972 L 29.243 22.443 C 29.243 22.655 29.416 22.827 29.629 22.827 L 37.308 22.827 C 37.521 22.827 37.693 22.655 37.693 22.443 L 37.693 18.972 C 37.693 18.76 37.521 18.588 37.308 18.588 Z" fill="rgb(252,250,245)"></path><path d="M 22.327 22.82 L 22.327 14.094 C 22.327 13.966 22.22 13.86 22.098 13.86 L 19.303 13.86 C 19.175 13.86 19.075 13.966 19.075 14.094 L 19.075 22.798 L 15.167 22.798 C 15.039 22.798 14.939 22.692 14.939 22.564 L 14.939 8.875 L 19.218 8.875 L 19.218 9.906 C 19.218 10.297 19.111 10.681 18.904 11.008 L 18.661 11.392 L 22.341 11.392 L 22.341 3.847 C 22.341 3.598 22.369 3.356 22.434 3.122 L 22.605 2.468 L 19.046 2.468 L 19.046 5.945 L 20.95 5.945 C 21.043 5.945 21.114 6.016 21.114 6.108 L 21.114 7.374 C 21.114 7.467 21.043 7.538 20.95 7.538 L 14.889 7.538 L 14.889 3.79 C 14.889 3.499 15.01 3.221 15.217 3.015 L 18.084 0.284 C 18.276 0.1 18.526 0 18.79 0 L 26.32 0 C 26.448 0 26.548 0.107 26.548 0.235 L 26.548 10.603 C 26.548 11.122 26.363 11.627 26.02 12.011 L 25.471 12.636 L 25.749 12.864 C 26.248 13.269 26.541 13.881 26.541 14.528 L 26.541 22.556 C 26.541 22.684 26.441 22.791 26.313 22.791 L 22.327 22.812 Z" fill="rgb(252,250,245)"></path></g></g></svg>